<?xml version="1.0" encoding="UTF-8" standalone="no"?>
<!DOCTYPE svg PUBLIC "-//W3C//DTD SVG 1.1//EN" "http://www.w3.org/Graphics/SVG/1.1/DTD/svg11.dtd">
<svg xmlns="http://www.w3.org/2000/svg" version="1.1" viewBox="0.00 0.00 1899.00 758.00">
<g stroke-width="2.00" fill="none" stroke-linecap="butt">
<path stroke="#888888" vector-effect="non-scaling-stroke" d="
  M 582.02 77.52
  A 0.27 0.27 0.0 0 0 581.75 77.25
  L 567.65 77.25
  A 0.27 0.27 0.0 0 0 567.38 77.52
  L 567.38 672.32
  A 0.27 0.27 0.0 0 0 567.65 672.59
  L 581.75 672.59
  A 0.27 0.27 0.0 0 0 582.02 672.32
  L 582.02 77.52"
/>
<path stroke="#90abd2" vector-effect="non-scaling-stroke" d="
  M 252.79 245.30
  A 26.74 26.74 0.0 0 0 226.05 218.56
  A 26.74 26.74 0.0 0 0 199.31 245.30
  A 26.74 26.74 0.0 0 0 226.05 272.04
  A 26.74 26.74 0.0 0 0 252.79 245.30"
/>
<path stroke="#888888" vector-effect="non-scaling-stroke" d="
  M 960.40 243.81
  Q 959.47 244.22 958.21 245.21
  Q 949.00 252.43 943.35 261.42
  C 932.26 279.07 930.56 302.21 935.94 322.04
  C 944.28 352.78 970.47 368.29 1000.93 371.81
  Q 1025.94 374.69 1047.69 368.79
  Q 1059.42 365.61 1068.03 360.16
  Q 1091.43 345.34 1097.40 317.49
  C 1102.80 292.30 1096.91 261.93 1075.03 245.58
  C 1056.00 231.35 1031.75 227.52 1008.28 228.71
  Q 983.70 229.96 963.37 241.55
  Q 962.18 242.23 961.21 243.24
  A 2.71 2.66 9.3 0 1 960.40 243.81"
/>
<path stroke="#90abd2" vector-effect="non-scaling-stroke" d="
  M 1201.28 319.96
  Q 1204.74 322.35 1206.47 326.22"
/>
<path stroke="#888888" vector-effect="non-scaling-stroke" d="
  M 1206.47 326.22
  C 1208.53 333.95 1203.73 340.85 1196.76 343.56
  Q 1188.07 346.95 1178.20 347.43
  Q 1164.47 348.10 1152.95 345.30
  Q 1145.14 343.40 1137.82 338.62
  Q 1131.76 334.65 1127.85 327.28
  A 1.15 1.15 0.0 0 0 1126.55 326.70
  L 1096.93 334.14
  A 0.40 0.39 -21.7 0 0 1096.68 334.71
  C 1102.64 346.10 1111.88 356.42 1123.37 362.33
  C 1133.95 367.78 1144.43 370.63 1155.87 371.65
  Q 1166.30 372.58 1176.30 372.47
  Q 1189.27 372.32 1202.59 369.26
  C 1225.00 364.12 1240.69 349.10 1239.37 324.40
  Q 1238.82 314.17 1232.83 306.05
  C 1227.04 298.20 1216.78 293.61 1207.38 291.32
  Q 1198.75 289.22 1195.99 288.77
  Q 1177.84 285.77 1160.43 282.63
  Q 1157.80 282.15 1155.22 281.49
  C 1148.61 279.80 1141.49 278.49 1139.75 270.74"
/>
<path stroke="#90abd2" vector-effect="non-scaling-stroke" d="
  M 1139.75 270.74
  L 1139.98 264.73"
/>
<path stroke="#888888" vector-effect="non-scaling-stroke" d="
  M 1139.98 264.73
  Q 1141.27 260.90 1144.01 258.63
  Q 1147.53 255.73 1153.09 254.47
  C 1164.72 251.84 1177.96 252.12 1189.65 255.21
  Q 1196.63 257.05 1202.22 261.21
  Q 1205.96 263.99 1208.41 268.11
  Q 1208.95 269.03 1209.99 268.77
  L 1240.62 261.12
  Q 1241.04 261.02 1240.83 260.64
  Q 1232.93 246.60 1218.57 239.04
  Q 1207.10 233.00 1196.91 230.98
  Q 1178.07 227.24 1156.93 229.13
  Q 1142.64 230.41 1131.29 235.59
  C 1112.80 244.03 1102.81 260.33 1108.14 281.17
  C 1113.08 300.54 1134.39 307.18 1152.02 310.13
  Q 1169.56 313.07 1186.74 315.74
  Q 1194.95 317.02 1201.28 319.96"
/>
<path stroke="#19345b" vector-effect="non-scaling-stroke" d="
  M 1139.98 264.73
  Q 1138.08 267.27 1139.75 270.74"
/>
<path stroke="#19345b" vector-effect="non-scaling-stroke" d="
  M 1206.47 326.22
  Q 1205.70 321.79 1201.28 319.96"
/>
<path stroke="#888888" vector-effect="non-scaling-stroke" d="
  M 1732.43 246.92
  Q 1729.42 248.92 1726.50 252.19
  Q 1717.30 262.44 1713.21 274.66
  C 1705.09 298.92 1708.56 331.29 1728.16 350.37
  Q 1743.23 365.05 1766.03 369.92
  Q 1794.16 375.93 1821.56 369.37
  Q 1835.18 366.11 1845.76 359.09
  C 1859.66 349.85 1869.33 335.64 1873.11 319.27
  C 1879.32 292.40 1872.92 260.93 1849.80 244.61
  Q 1834.66 233.93 1816.14 230.72
  Q 1800.21 227.96 1784.96 228.67
  Q 1760.92 229.80 1740.48 240.95
  Q 1739.18 241.66 1737.23 243.18
  Q 1735.64 244.42 1733.87 245.35
  Q 1733.46 245.57 1733.09 246.21
  Q 1732.84 246.64 1732.43 246.92"
/>
<path stroke="#888888" vector-effect="non-scaling-stroke" d="
  M 688.65 317.57
  A 0.30 0.30 0.0 0 1 688.95 317.27
  Q 713.83 317.24 737.47 317.25
  Q 751.54 317.25 759.48 315.31
  Q 786.84 308.63 789.74 279.92
  Q 790.84 268.97 787.11 257.75
  C 781.09 239.70 763.25 232.88 745.61 232.82
  Q 702.67 232.66 655.81 232.78
  Q 655.25 232.78 655.25 233.35
  L 655.24 367.75
  A 0.51 0.50 0.0 0 0 655.75 368.25
  L 688.20 368.24
  A 0.45 0.44 0.0 0 0 688.65 367.80
  L 688.65 317.57"
/>
<path stroke="#888888" vector-effect="non-scaling-stroke" d="
  M 899.71 311.56
  C 911.05 309.83 922.77 305.28 928.67 294.93
  C 940.89 273.50 933.07 242.62 907.15 235.22
  Q 898.58 232.77 888.63 232.76
  Q 840.27 232.74 791.79 232.75
  A 0.29 0.28 -0.0 0 0 791.50 233.03
  L 791.50 367.75
  A 0.50 0.50 0.0 0 0 792.00 368.25
  L 824.78 368.24
  A 0.52 0.51 0.0 0 0 825.30 367.73
  L 825.29 314.23
  A 0.48 0.48 0.0 0 1 825.77 313.75
  L 863.76 313.75
  Q 864.06 313.75 864.23 314.00
  L 899.79 367.73
  A 1.18 1.15 72.8 0 0 900.76 368.26
  L 939.71 368.24
  A 0.28 0.28 0.0 0 0 939.94 367.80
  L 899.39 312.32
  Q 898.93 311.68 899.71 311.56"
/>
<path stroke="#888888" vector-effect="non-scaling-stroke" d="
  M 1280.61 317.57
  A 0.34 0.34 0.0 0 1 1280.96 317.23
  Q 1309.54 317.36 1334.51 317.14
  C 1353.72 316.97 1371.20 311.65 1378.91 292.54
  C 1383.03 282.33 1382.73 268.54 1379.18 257.96
  C 1375.20 246.09 1365.72 238.01 1353.57 234.98
  Q 1345.05 232.85 1337.67 232.82
  Q 1297.77 232.67 1247.84 232.78
  Q 1247.24 232.78 1247.24 233.38
  L 1247.23 367.49
  A 0.76 0.76 0.0 0 0 1247.99 368.25
  L 1280.19 368.24
  A 0.42 0.42 0.0 0 0 1280.61 367.82
  L 1280.61 317.57"
/>
<path stroke="#888888" vector-effect="non-scaling-stroke" d="
  M 1417.79 343.99
  A 0.50 0.50 0.0 0 1 1417.29 343.49
  L 1417.27 312.51
  A 0.50 0.50 0.0 0 1 1417.77 312.01
  L 1506.01 311.99
  A 0.50 0.50 0.0 0 0 1506.51 311.49
  L 1506.52 288.25
  A 0.50 0.50 0.0 0 0 1506.02 287.75
  L 1417.77 287.75
  A 0.50 0.50 0.0 0 1 1417.27 287.25
  L 1417.28 257.75
  A 0.50 0.50 0.0 0 1 1417.78 257.25
  L 1509.09 257.25
  A 0.50 0.50 0.0 0 0 1509.59 256.75
  L 1509.61 233.25
  A 0.50 0.50 0.0 0 0 1509.11 232.75
  L 1383.79 232.75
  A 0.50 0.50 0.0 0 0 1383.29 233.25
  L 1383.28 367.75
  A 0.50 0.50 0.0 0 0 1383.78 368.25
  L 1512.97 368.25
  A 0.50 0.50 0.0 0 0 1513.47 367.75
  L 1513.46 344.51
  A 0.50 0.50 0.0 0 0 1512.96 344.01
  L 1417.79 343.99"
/>
<path stroke="#888888" vector-effect="non-scaling-stroke" d="
  M 1627.32 311.66
  C 1640.41 309.57 1652.63 304.65 1658.45 291.66
  C 1667.19 272.16 1661.21 245.45 1639.40 236.73
  Q 1631.96 233.75 1624.01 233.02
  Q 1621.27 232.77 1607.96 232.76
  Q 1561.58 232.72 1520.06 232.76
  A 0.49 0.48 0.0 0 0 1519.57 233.24
  L 1519.57 367.79
  A 0.47 0.46 0.0 0 0 1520.04 368.25
  L 1552.84 368.24
  A 0.58 0.58 0.0 0 0 1553.42 367.66
  L 1553.41 314.17
  A 0.42 0.42 0.0 0 1 1553.83 313.75
  L 1591.74 313.75
  Q 1592.15 313.75 1592.38 314.10
  L 1627.81 367.64
  Q 1628.22 368.26 1628.96 368.26
  L 1701.05 368.25
  A 0.49 0.49 0.0 0 0 1701.54 367.76
  L 1701.54 233.08
  Q 1701.54 232.76 1701.22 232.76
  L 1667.79 232.75
  A 0.20 0.20 0.0 0 0 1667.59 232.95
  L 1667.58 365.26
  Q 1667.58 367.30 1666.39 365.65
  Q 1647.03 338.97 1627.49 312.48
  Q 1627.37 312.32 1627.21 312.22
  Q 1626.48 311.79 1627.32 311.66"
/>
<path stroke="#90abd2" vector-effect="non-scaling-stroke" d="
  M 195.02 277.79
  A 26.72 26.72 0.0 0 0 168.30 251.07
  A 26.72 26.72 0.0 0 0 141.58 277.79
  A 26.72 26.72 0.0 0 0 168.30 304.51
  A 26.72 26.72 0.0 0 0 195.02 277.79"
/>
<path stroke="#8db5da" vector-effect="non-scaling-stroke" d="
  M 310.54 277.79
  A 26.72 26.72 0.0 0 0 283.82 251.07
  A 26.72 26.72 0.0 0 0 257.10 277.79
  A 26.72 26.72 0.0 0 0 283.82 304.51
  A 26.72 26.72 0.0 0 0 310.54 277.79"
/>
<path stroke="#89bfe3" vector-effect="non-scaling-stroke" d="
  M 368.33 309.76
  A 26.75 26.75 0.0 0 0 341.58 283.01
  A 26.75 26.75 0.0 0 0 314.83 309.76
  A 26.75 26.75 0.0 0 0 341.58 336.51
  A 26.75 26.75 0.0 0 0 368.33 309.76"
/>
<path stroke="#95a0c9" vector-effect="non-scaling-stroke" d="
  M 137.23 309.90
  A 26.70 26.70 0.0 0 0 110.53 283.20
  A 26.70 26.70 0.0 0 0 83.83 309.90
  A 26.70 26.70 0.0 0 0 110.53 336.60
  A 26.70 26.70 0.0 0 0 137.23 309.90"
/>
<path stroke="#8db5da" vector-effect="non-scaling-stroke" d="
  M 252.16 311.15
  A 26.70 26.70 0.0 0 0 225.46 284.45
  A 26.70 26.70 0.0 0 0 198.76 311.15
  A 26.70 26.70 0.0 0 0 225.46 337.85
  A 26.70 26.70 0.0 0 0 252.16 311.15"
/>
<path stroke="#95a0c9" vector-effect="non-scaling-stroke" d="
  M 79.53 342.00
  A 26.76 26.76 0.0 0 0 52.77 315.24
  A 26.76 26.76 0.0 0 0 26.01 342.00
  A 26.76 26.76 0.0 0 0 52.77 368.76
  A 26.76 26.76 0.0 0 0 79.53 342.00"
/>
<path stroke="#85caed" vector-effect="non-scaling-stroke" d="
  M 426.10 342.01
  A 26.76 26.76 0.0 0 0 399.34 315.25
  A 26.76 26.76 0.0 0 0 372.58 342.01
  A 26.76 26.76 0.0 0 0 399.34 368.77
  A 26.76 26.76 0.0 0 0 426.10 342.01"
/>
<path stroke="#90abd2" vector-effect="non-scaling-stroke" d="
  M 194.41 343.66
  A 26.70 26.70 0.0 0 0 167.71 316.96
  A 26.70 26.70 0.0 0 0 141.01 343.66
  A 26.70 26.70 0.0 0 0 167.71 370.36
  A 26.70 26.70 0.0 0 0 194.41 343.66"
/>
<path stroke="#89bfe3" vector-effect="non-scaling-stroke" d="
  M 309.92 343.66
  A 26.70 26.70 0.0 0 0 283.22 316.96
  A 26.70 26.70 0.0 0 0 256.52 343.66
  A 26.70 26.70 0.0 0 0 283.22 370.36
  A 26.70 26.70 0.0 0 0 309.92 343.66"
/>
<path stroke="#85caed" vector-effect="non-scaling-stroke" d="
  M 367.72 375.53
  A 26.73 26.73 0.0 0 0 340.99 348.80
  A 26.73 26.73 0.0 0 0 314.26 375.53
  A 26.73 26.73 0.0 0 0 340.99 402.26
  A 26.73 26.73 0.0 0 0 367.72 375.53"
/>
<path stroke="#90abd2" vector-effect="non-scaling-stroke" d="
  M 136.70 375.76
  A 26.76 26.76 0.0 0 0 109.94 349.00
  A 26.76 26.76 0.0 0 0 83.18 375.76
  A 26.76 26.76 0.0 0 0 109.94 402.52
  A 26.76 26.76 0.0 0 0 136.70 375.76"
/>
<path stroke="#90abd2" vector-effect="non-scaling-stroke" d="
  M 78.91 407.79
  A 26.73 26.73 0.0 0 0 52.18 381.06
  A 26.73 26.73 0.0 0 0 25.45 407.79
  A 26.73 26.73 0.0 0 0 52.18 434.52
  A 26.73 26.73 0.0 0 0 78.91 407.79"
/>
<path stroke="#85caed" vector-effect="non-scaling-stroke" d="
  M 425.47 407.79
  A 26.72 26.72 0.0 0 0 398.75 381.07
  A 26.72 26.72 0.0 0 0 372.03 407.79
  A 26.72 26.72 0.0 0 0 398.75 434.51
  A 26.72 26.72 0.0 0 0 425.47 407.79"
/>
<path stroke="#888888" vector-effect="non-scaling-stroke" d="
  M 1142.89 473.13
  A 0.41 0.41 0.0 0 0 1142.54 472.50
  L 1139.08 472.51
  A 0.41 0.41 0.0 0 0 1138.71 472.74
  L 1134.87 480.58
  A 0.41 0.41 0.0 0 0 1135.27 481.17
  L 1137.68 480.98
  A 0.41 0.41 0.0 0 0 1137.99 480.79
  L 1142.89 473.13"
/>
<path stroke="#888888" vector-effect="non-scaling-stroke" d="
  M 1152.17 473.08
  A 0.36 0.36 0.0 0 0 1151.87 472.52
  L 1148.24 472.56
  A 0.36 0.36 0.0 0 0 1147.92 472.76
  L 1143.97 480.71
  A 0.36 0.36 0.0 0 0 1144.34 481.23
  L 1146.84 480.91
  A 0.36 0.36 0.0 0 0 1147.09 480.75
  L 1152.17 473.08"
/>
<path stroke="#888888" vector-effect="non-scaling-stroke" d="
  M 674.41 473.32
  A 0.36 0.36 0.0 0 0 674.11 472.77
  L 670.49 472.80
  A 0.36 0.36 0.0 0 0 670.17 473.00
  L 666.23 480.90
  A 0.36 0.36 0.0 0 0 666.58 481.42
  L 669.02 481.25
  A 0.36 0.36 0.0 0 0 669.30 481.09
  L 674.41 473.32"
/>
<path stroke="#888888" vector-effect="non-scaling-stroke" d="
  M 799.41 473.29
  A 0.36 0.36 0.0 0 0 799.10 472.73
  L 795.45 472.82
  A 0.36 0.36 0.0 0 0 795.13 473.02
  L 791.17 480.94
  A 0.36 0.36 0.0 0 0 791.52 481.46
  L 794.03 481.25
  A 0.36 0.36 0.0 0 0 794.30 481.08
  L 799.41 473.29"
/>
<path stroke="#888888" vector-effect="non-scaling-stroke" d="
  M 1493.05 473.34
  A 0.41 0.41 0.0 0 0 1492.69 472.70
  L 1489.03 472.88
  A 0.41 0.41 0.0 0 0 1488.68 473.11
  L 1484.91 480.83
  A 0.41 0.41 0.0 0 0 1485.30 481.42
  L 1487.53 481.29
  A 0.41 0.41 0.0 0 0 1487.84 481.11
  L 1493.05 473.34"
/>
<path stroke="#888888" vector-effect="non-scaling-stroke" d="
  M 1155.74 494.07
  A 9.29 9.29 0.0 0 0 1146.45 484.78
  L 1135.89 484.78
  A 9.29 9.29 0.0 0 0 1126.60 494.07
  L 1126.60 515.41
  A 9.29 9.29 0.0 0 0 1135.89 524.70
  L 1146.45 524.70
  A 9.29 9.29 0.0 0 0 1155.74 515.41
  L 1155.74 494.07"
/>
<path stroke="#888888" vector-effect="non-scaling-stroke" d="
  M 1369.66 494.06
  A 9.27 9.27 0.0 0 0 1360.39 484.79
  L 1349.77 484.79
  A 9.27 9.27 0.0 0 0 1340.50 494.06
  L 1340.50 515.44
  A 9.27 9.27 0.0 0 0 1349.77 524.71
  L 1360.39 524.71
  A 9.27 9.27 0.0 0 0 1369.66 515.44
  L 1369.66 494.06"
/>
<path stroke="#888888" vector-effect="non-scaling-stroke" d="
  M 1585.0185 494.1855
  A 9.38 9.38 0.0 0 0 1575.6548 484.7891
  L 1565.2349 484.7709
  A 9.38 9.38 0.0 0 0 1555.8385 494.1346
  L 1555.8015 515.3145
  A 9.38 9.38 0.0 0 0 1565.1652 524.7109
  L 1575.5851 524.7291
  A 9.38 9.38 0.0 0 0 1584.9815 515.3654
  L 1585.0185 494.1855"
/>
<path stroke="#888888" vector-effect="non-scaling-stroke" d="
  M 660.11 488.89
  Q 669.43 488.87 679.02 488.85
  A 1.47 1.45 -1.9 0 0 680.48 487.31
  Q 680.47 487.17 680.51 487.04
  Q 681.13 485.24 679.18 485.24
  Q 668.09 485.25 656.00 485.26
  Q 655.25 485.27 655.25 486.02
  L 655.23 523.65
  Q 655.23 524.20 655.78 524.19
  L 679.73 524.05
  Q 680.50 524.05 680.51 523.27
  L 680.54 521.27
  Q 680.55 520.74 680.02 520.74
  L 659.99 520.59
  A 0.60 0.59 0.5 0 1 659.39 519.99
  L 659.42 506.83
  Q 659.42 506.19 660.05 506.19
  L 674.21 506.12
  A 1.08 1.08 0.0 0 0 675.29 505.05
  L 675.32 503.42
  Q 675.33 502.51 674.42 502.51
  L 660.20 502.49
  Q 659.42 502.49 659.42 501.71
  L 659.41 489.59
  Q 659.41 488.89 660.11 488.89"
/>
<path stroke="#888888" vector-effect="non-scaling-stroke" d="
  M 701.41 508.92
  L 710.88 508.87
  Q 711.78 508.87 712.22 509.66
  L 719.71 523.00
  Q 720.38 524.19 721.75 524.11
  L 723.96 523.98
  Q 725.42 523.90 724.65 522.65
  L 716.33 509.13
  Q 715.99 508.57 716.62 508.42
  Q 722.96 506.88 723.48 500.01
  C 724.04 492.48 722.78 485.73 713.67 485.37
  Q 706.51 485.10 697.14 485.30
  Q 696.49 485.31 696.49 485.96
  L 696.48 523.69
  Q 696.48 524.14 696.93 524.12
  L 700.28 523.98
  Q 700.77 523.96 700.77 523.47
  L 700.75 509.59
  Q 700.74 508.92 701.41 508.92"
/>
<path stroke="#888888" vector-effect="non-scaling-stroke" d="
  M 753.19 489.41
  A 0.50 0.50 0.0 0 1 753.68 488.91
  L 764.60 488.76
  A 0.50 0.50 0.0 0 0 765.09 488.31
  L 765.36 485.81
  A 0.50 0.50 0.0 0 0 764.86 485.26
  L 737.30 485.26
  A 0.50 0.50 0.0 0 0 736.80 485.73
  L 736.63 488.32
  A 0.50 0.50 0.0 0 0 737.12 488.85
  L 748.29 488.90
  A 0.50 0.50 0.0 0 1 748.79 489.40
  L 748.81 523.61
  A 0.50 0.50 0.0 0 0 749.32 524.11
  L 752.69 524.02
  A 0.50 0.50 0.0 0 0 753.18 523.52
  L 753.19 489.41"
/>
<path stroke="#888888" vector-effect="non-scaling-stroke" d="
  M 785.08 502.47
  A 0.69 0.69 0.0 0 1 784.39 501.78
  L 784.38 489.60
  A 0.69 0.69 0.0 0 1 785.07 488.91
  L 804.61 488.82
  A 0.69 0.69 0.0 0 0 805.29 488.22
  L 805.57 486.04
  A 0.69 0.69 0.0 0 0 804.89 485.26
  L 780.92 485.25
  A 0.69 0.69 0.0 0 0 780.23 485.94
  L 780.25 523.48
  A 0.69 0.69 0.0 0 0 780.95 524.17
  L 804.87 523.98
  A 0.69 0.69 0.0 0 0 805.55 523.29
  L 805.56 521.50
  A 0.69 0.69 0.0 0 0 804.87 520.80
  L 785.04 520.65
  A 0.69 0.69 0.0 0 1 784.35 519.95
  L 784.41 506.87
  A 0.69 0.69 0.0 0 1 785.09 506.18
  L 799.56 506.00
  A 0.69 0.69 0.0 0 0 800.24 505.33
  L 800.32 503.26
  A 0.69 0.69 0.0 0 0 799.63 502.55
  L 785.08 502.47"
/>
<path stroke="#888888" vector-effect="non-scaling-stroke" d="
  M 825.62 506.92
  A 0.80 0.80 0.0 0 1 826.42 506.12
  L 834.37 506.10
  A 0.80 0.80 0.0 0 1 835.07 506.52
  L 844.53 523.70
  A 0.80 0.80 0.0 0 0 845.27 524.11
  L 848.50 523.97
  A 0.80 0.80 0.0 0 0 849.15 522.76
  L 838.44 504.64
  A 0.80 0.80 0.0 0 1 838.44 503.82
  L 848.61 486.60
  A 0.80 0.80 0.0 0 0 847.95 485.39
  L 844.77 485.29
  A 0.80 0.80 0.0 0 0 844.04 485.70
  L 835.07 502.02
  A 0.80 0.80 0.0 0 1 834.38 502.44
  L 826.44 502.53
  A 0.80 0.80 0.0 0 1 825.63 501.73
  L 825.72 486.01
  A 0.80 0.80 0.0 0 0 824.90 485.21
  L 822.26 485.26
  A 0.80 0.80 0.0 0 0 821.47 486.06
  L 821.48 523.35
  A 0.80 0.80 0.0 0 0 822.32 524.15
  L 824.92 524.03
  A 0.80 0.80 0.0 0 0 825.69 523.23
  L 825.62 506.92"
/>
<path stroke="#888888" vector-effect="non-scaling-stroke" d="
  M 872.23 489.56
  L 872.25 523.59
  Q 872.25 524.18 872.84 524.15
  L 875.72 524.01
  Q 876.41 523.98 876.41 523.28
  L 876.42 489.48
  Q 876.42 488.88 877.02 488.87
  L 886.79 488.86
  Q 888.35 488.86 888.58 487.32
  Q 888.64 486.90 888.73 486.48
  Q 889.00 485.25 887.74 485.25
  L 860.50 485.25
  Q 859.75 485.25 859.90 485.98
  Q 860.10 487.02 859.92 488.15
  Q 859.80 488.85 860.51 488.85
  L 871.56 488.89
  Q 872.23 488.89 872.23 489.56"
/>
<path stroke="#888888" vector-effect="non-scaling-stroke" d="
  M 908.11 520.62
  A 0.54 0.54 0.0 0 1 907.57 520.08
  L 907.61 506.73
  A 0.54 0.54 0.0 0 1 908.14 506.20
  L 922.94 506.09
  A 0.54 0.54 0.0 0 0 923.48 505.56
  L 923.52 503.07
  A 0.54 0.54 0.0 0 0 922.98 502.52
  L 908.16 502.49
  A 0.54 0.54 0.0 0 1 907.62 501.95
  L 907.61 489.42
  A 0.54 0.54 0.0 0 1 908.15 488.88
  L 927.87 488.85
  A 0.54 0.54 0.0 0 0 928.40 488.42
  L 928.91 485.91
  A 0.54 0.54 0.0 0 0 928.38 485.26
  L 904.02 485.25
  A 0.54 0.54 0.0 0 0 903.48 485.79
  L 903.49 523.65
  A 0.54 0.54 0.0 0 0 904.03 524.19
  L 928.18 524.04
  A 0.54 0.54 0.0 0 0 928.72 523.52
  L 928.80 521.29
  A 0.54 0.54 0.0 0 0 928.26 520.73
  L 908.11 520.62"
/>
<path stroke="#888888" vector-effect="non-scaling-stroke" d="
  M 964.85 508.43
  Q 971.24 506.93 971.72 500.04
  C 972.30 491.84 970.84 485.61 961.47 485.35
  Q 953.99 485.14 945.40 485.29
  Q 944.71 485.30 944.71 485.99
  L 944.73 523.66
  Q 944.73 524.10 945.16 524.10
  L 948.74 524.05
  Q 949.02 524.05 949.02 523.76
  L 948.99 509.45
  A 0.56 0.55 0.0 0 1 949.55 508.90
  L 959.44 508.88
  A 0.97 0.96 -14.9 0 1 960.30 509.37
  L 968.14 523.25
  Q 968.65 524.16 969.69 524.16
  Q 971.26 524.17 972.64 523.75
  Q 973.48 523.49 973.01 522.74
  L 964.56 509.13
  Q 964.22 508.58 964.85 508.43"
/>
<path stroke="#888888" vector-effect="non-scaling-stroke" d="
  M 994.65 520.57
  A 0.49 0.49 0.0 0 1 994.16 520.08
  L 994.19 506.68
  A 0.49 0.49 0.0 0 1 994.68 506.19
  L 1009.52 506.14
  A 0.49 0.49 0.0 0 0 1010.01 505.66
  L 1010.03 502.99
  A 0.49 0.49 0.0 0 0 1009.55 502.50
  L 994.68 502.48
  A 0.49 0.49 0.0 0 1 994.19 501.99
  L 994.22 489.40
  A 0.49 0.49 0.0 0 1 994.71 488.91
  L 1014.61 488.81
  A 0.49 0.49 0.0 0 0 1015.09 488.37
  L 1015.36 485.79
  A 0.49 0.49 0.0 0 0 1014.87 485.25
  L 990.45 485.25
  A 0.49 0.49 0.0 0 0 989.96 485.74
  L 989.98 523.68
  A 0.49 0.49 0.0 0 0 990.47 524.17
  L 1014.77 524.10
  A 0.49 0.49 0.0 0 0 1015.26 523.63
  L 1015.33 521.16
  A 0.49 0.49 0.0 0 0 1014.85 520.66
  L 994.65 520.57"
/>
<path stroke="#888888" vector-effect="non-scaling-stroke" d="
  M 1064.84 493.97
  L 1068.39 523.92
  Q 1068.41 524.07 1068.56 524.07
  L 1072.58 523.95
  Q 1072.87 523.94 1072.83 523.66
  L 1067.70 485.80
  Q 1067.62 485.20 1067.02 485.22
  C 1065.48 485.27 1062.85 484.70 1062.10 486.49
  Q 1056.92 498.94 1051.13 512.88
  A 0.32 0.32 0.0 0 1 1050.54 512.88
  L 1039.27 485.84
  Q 1039.06 485.34 1038.52 485.28
  C 1037.47 485.18 1036.33 485.35 1035.28 485.23
  Q 1033.98 485.08 1033.81 486.37
  Q 1031.43 504.58 1028.88 523.35
  A 0.65 0.64 3.9 0 0 1029.52 524.08
  L 1032.72 524.05
  A 0.60 0.60 0.0 0 0 1033.32 523.52
  L 1036.97 492.74
  A 0.42 0.42 0.0 0 1 1037.78 492.63
  Q 1042.72 504.64 1048.35 517.94
  Q 1048.59 518.52 1049.28 518.72
  Q 1050.31 519.01 1051.58 518.96
  Q 1052.94 518.91 1053.75 516.98
  Q 1058.61 505.41 1063.42 493.77
  Q 1064.50 491.15 1064.84 493.97"
/>
<path stroke="#888888" vector-effect="non-scaling-stroke" d="
  M 1096.41 488.89
  A 0.52 0.52 0.0 0 1 1096.93 489.41
  L 1096.99 523.56
  A 0.52 0.52 0.0 0 0 1097.51 524.08
  L 1100.66 524.06
  A 0.52 0.52 0.0 0 0 1101.18 523.54
  L 1101.19 489.42
  A 0.52 0.52 0.0 0 1 1101.70 488.90
  L 1112.72 488.79
  A 0.52 0.52 0.0 0 0 1113.23 488.32
  L 1113.47 485.83
  A 0.52 0.52 0.0 0 0 1112.96 485.26
  L 1085.30 485.25
  A 0.52 0.52 0.0 0 0 1084.78 485.74
  L 1084.64 488.30
  A 0.52 0.52 0.0 0 0 1085.16 488.85
  L 1096.41 488.89"
/>
<path stroke="#888888" vector-effect="non-scaling-stroke" d="
  M 1202.36 492.77
  Q 1202.55 491.14 1203.18 492.65
  L 1213.88 518.25
  Q 1214.08 518.74 1214.60 518.81
  Q 1216.28 519.06 1218.02 518.73
  A 0.88 0.87 -84.1 0 0 1218.66 518.20
  L 1229.33 492.61
  A 0.40 0.40 0.0 0 1 1230.10 492.71
  L 1233.76 523.48
  Q 1233.83 524.13 1234.49 524.12
  L 1237.50 524.03
  A 0.70 0.69 85.5 0 0 1238.17 523.24
  L 1233.19 486.05
  Q 1233.08 485.27 1232.29 485.26
  L 1229.08 485.25
  Q 1228.51 485.24 1228.15 485.68
  Q 1227.52 486.45 1227.13 487.39
  Q 1221.93 500.06 1216.67 512.48
  A 0.50 0.50 0.0 0 1 1215.75 512.47
  L 1204.65 485.73
  A 0.75 0.74 -11.3 0 0 1203.94 485.26
  L 1200.10 485.27
  Q 1199.45 485.27 1199.36 485.91
  L 1194.35 523.02
  Q 1194.21 524.09 1195.28 524.06
  L 1197.86 524.00
  Q 1198.69 523.98 1198.79 523.15
  L 1202.36 492.77"
/>
<path stroke="#888888" vector-effect="non-scaling-stroke" d="
  M 1260.33 520.62
  A 0.50 0.50 0.0 0 1 1259.83 520.12
  L 1259.85 506.70
  A 0.50 0.50 0.0 0 1 1260.35 506.20
  L 1275.22 506.11
  A 0.50 0.50 0.0 0 0 1275.72 505.61
  L 1275.72 503.00
  A 0.50 0.50 0.0 0 0 1275.22 502.50
  L 1260.33 502.50
  A 0.50 0.50 0.0 0 1 1259.83 502.00
  L 1259.84 489.41
  A 0.50 0.50 0.0 0 1 1260.34 488.91
  L 1280.19 488.81
  A 0.50 0.50 0.0 0 0 1280.68 488.41
  L 1281.17 485.86
  A 0.50 0.50 0.0 0 0 1280.68 485.26
  L 1256.24 485.25
  A 0.50 0.50 0.0 0 0 1255.74 485.75
  L 1255.72 523.67
  A 0.50 0.50 0.0 0 0 1256.22 524.17
  L 1280.52 524.09
  A 0.50 0.50 0.0 0 0 1281.01 523.60
  L 1281.04 521.18
  A 0.50 0.50 0.0 0 0 1280.54 520.68
  L 1260.33 520.62"
/>
<path stroke="#888888" vector-effect="non-scaling-stroke" d="
  M 1317.79 520.60
  Q 1312.25 520.63 1306.71 520.65
  C 1302.94 520.66 1300.16 518.63 1300.16 514.80
  Q 1300.19 504.43 1300.20 494.45
  C 1300.20 491.19 1302.74 488.93 1305.90 488.90
  Q 1312.54 488.86 1320.43 488.86
  A 1.15 1.14 -3.1 0 0 1321.57 487.59
  Q 1321.49 486.93 1321.75 486.30
  Q 1322.17 485.31 1321.10 485.29
  Q 1312.42 485.08 1305.28 485.44
  Q 1296.08 485.90 1295.89 495.65
  Q 1295.70 505.50 1295.87 514.02
  Q 1296.06 523.85 1306.27 524.10
  Q 1313.46 524.27 1322.05 524.09
  Q 1322.87 524.07 1322.87 523.25
  L 1322.94 503.53
  Q 1322.94 503.12 1322.53 503.13
  L 1319.05 503.20
  Q 1318.55 503.21 1318.55 503.70
  L 1318.58 519.81
  Q 1318.58 520.60 1317.79 520.60"
/>
<path stroke="#888888" vector-effect="non-scaling-stroke" d="
  M 1393.07 520.62
  A 0.42 0.42 0.0 0 1 1392.65 520.20
  L 1392.68 485.67
  A 0.42 0.42 0.0 0 0 1392.26 485.25
  L 1388.91 485.29
  A 0.42 0.42 0.0 0 0 1388.49 485.71
  L 1388.48 523.74
  A 0.42 0.42 0.0 0 0 1388.90 524.16
  L 1413.07 524.02
  A 0.42 0.42 0.0 0 0 1413.49 523.61
  L 1413.56 521.24
  A 0.42 0.42 0.0 0 0 1413.14 520.81
  L 1393.07 520.62"
/>
<path stroke="#888888" vector-effect="non-scaling-stroke" d="
  M 1428.26 485.70
  L 1428.40 523.78
  A 0.42 0.42 0.0 0 0 1428.82 524.20
  L 1445.95 524.14
  A 10.07 9.92 -0.2 0 0 1455.98 514.18
  L 1455.92 495.10
  A 10.07 9.92 -0.2 0 0 1445.81 485.22
  L 1428.68 485.28
  A 0.42 0.42 0.0 0 0 1428.26 485.70"
/>
<path stroke="#888888" vector-effect="non-scaling-stroke" d="
  M 1493.47 514.07
  A 0.80 0.80 0.0 0 1 1494.23 514.62
  L 1497.21 523.58
  A 0.80 0.80 0.0 0 0 1498.00 524.12
  L 1501.06 523.99
  A 0.80 0.80 0.0 0 0 1501.77 522.91
  L 1488.17 485.80
  A 0.80 0.80 0.0 0 0 1487.42 485.27
  L 1483.77 485.31
  A 0.80 0.80 0.0 0 0 1483.03 485.83
  L 1469.46 523.02
  A 0.80 0.80 0.0 0 0 1470.23 524.09
  L 1473.37 524.01
  A 0.80 0.80 0.0 0 0 1474.12 523.46
  L 1476.99 514.66
  A 0.80 0.80 0.0 0 1 1477.75 514.11
  L 1493.47 514.07"
/>
<path stroke="#888888" vector-effect="non-scaling-stroke" d="
  M 1535.80 514.69
  C 1536.01 518.32 1533.19 520.54 1529.77 520.55
  Q 1522.35 520.57 1514.35 520.65
  Q 1513.73 520.66 1513.72 521.28
  L 1513.70 523.49
  Q 1513.69 524.07 1514.27 524.08
  Q 1524.84 524.40 1531.55 523.98
  Q 1536.79 523.66 1538.89 519.29
  C 1541.64 513.59 1540.27 505.16 1532.84 503.54
  Q 1527.58 502.40 1522.26 501.27
  C 1518.88 500.55 1517.96 496.66 1518.60 493.74
  Q 1519.63 489.02 1524.52 488.93
  Q 1530.23 488.84 1537.80 488.87
  Q 1539.26 488.87 1539.28 487.41
  L 1539.30 486.21
  Q 1539.31 485.29 1538.39 485.28
  Q 1530.12 485.12 1523.83 485.39
  Q 1514.71 485.77 1514.30 495.03
  Q 1513.92 503.57 1522.33 505.29
  Q 1527.00 506.24 1531.85 507.41
  C 1536.31 508.50 1535.59 511.22 1535.80 514.69"
/>
<path stroke="#888888" vector-effect="non-scaling-stroke" d="
  M 1607.98 506.87
  A 0.76 0.76 0.0 0 1 1608.74 506.11
  L 1616.61 506.12
  A 0.76 0.76 0.0 0 1 1617.28 506.51
  L 1626.83 523.71
  A 0.76 0.76 0.0 0 0 1627.53 524.10
  L 1630.84 523.93
  A 0.76 0.76 0.0 0 0 1631.46 522.79
  L 1620.68 504.61
  A 0.76 0.76 0.0 0 1 1620.68 503.83
  L 1630.99 486.46
  A 0.76 0.76 0.0 0 0 1630.35 485.32
  L 1627.03 485.26
  A 0.76 0.76 0.0 0 0 1626.35 485.65
  L 1617.34 502.05
  A 0.76 0.76 0.0 0 1 1616.69 502.45
  L 1608.74 502.54
  A 0.76 0.76 0.0 0 1 1607.97 501.78
  L 1608.05 485.98
  A 0.76 0.76 0.0 0 0 1607.28 485.22
  L 1604.49 485.26
  A 0.76 0.76 0.0 0 0 1603.74 486.02
  L 1603.74 523.38
  A 0.76 0.76 0.0 0 0 1604.52 524.14
  L 1607.29 524.08
  A 0.76 0.76 0.0 0 0 1608.03 523.32
  L 1607.98 506.87"
/>
<path stroke="#888888" vector-effect="non-scaling-stroke" d="
  M 987.56 261.56
  Q 977.91 267.81 972.77 278.78
  Q 966.76 291.58 968.19 307.14
  C 970.11 328.02 984.92 345.05 1006.38 347.62
  C 1018.60 349.07 1029.52 348.06 1040.41 342.93
  C 1063.85 331.88 1070.18 300.37 1059.79 278.61
  C 1051.81 261.90 1035.20 253.40 1017.00 253.11
  Q 1000.97 252.86 987.56 261.56"
/>
<path stroke="#19345b" vector-effect="non-scaling-stroke" d="
  M 1759.55 264.47
  Q 1755.35 267.19 1753.39 271.19"
/>
<path stroke="#888888" vector-effect="non-scaling-stroke" d="
  M 1753.39 271.19
  Q 1746.91 279.85 1744.94 291.01
  C 1742.13 306.99 1745.41 322.89 1756.58 334.84
  Q 1765.81 344.71 1780.02 347.19
  Q 1791.67 349.21 1801.98 347.51
  Q 1828.04 343.19 1837.07 320.22
  C 1840.96 310.31 1841.72 299.30 1839.41 289.00
  C 1835.04 269.46 1821.09 257.39 1801.87 253.91
  Q 1782.40 250.39 1764.45 260.94
  Q 1761.67 262.57 1759.55 264.47"
/>
<path stroke="#90abd2" vector-effect="non-scaling-stroke" d="
  M 1753.39 271.19
  L 1759.55 264.47"
/>
<path stroke="#888888" vector-effect="non-scaling-stroke" d="
  M 688.65 256.59
  L 688.65 293.11
  A 0.37 0.37 0.0 0 0 689.02 293.48
  L 738.32 293.48
  A 17.87 17.09 0.0 0 0 756.19 276.39
  L 756.19 273.31
  A 17.87 17.09 -0.0 0 0 738.32 256.22
  L 689.02 256.22
  A 0.37 0.37 0.0 0 0 688.65 256.59"
/>
<path stroke="#888888" vector-effect="non-scaling-stroke" d="
  M 825.31 257.03
  L 825.25 289.15
  A 0.59 0.59 0.0 0 0 825.84 289.75
  L 883.45 289.85
  A 16.44 15.46 0.1 0 0 899.92 274.42
  L 899.92 272.04
  A 16.44 15.46 0.1 0 0 883.51 256.55
  L 825.90 256.45
  A 0.59 0.59 0.0 0 0 825.31 257.03"
/>
<path stroke="#888888" vector-effect="non-scaling-stroke" d="
  M 1280.53 256.89
  L 1280.59 292.93
  A 0.62 0.62 0.0 0 0 1281.21 293.55
  L 1330.30 293.46
  A 17.91 16.99 -0.1 0 0 1348.18 276.44
  L 1348.18 273.14
  A 17.91 16.99 -0.1 0 0 1330.24 256.18
  L 1281.15 256.27
  A 0.62 0.62 0.0 0 0 1280.53 256.89"
/>
<path stroke="#888888" vector-effect="non-scaling-stroke" d="
  M 1553.37 257.04
  L 1553.37 289.26
  A 0.53 0.53 0.0 0 0 1553.90 289.79
  L 1611.62 289.79
  A 16.37 15.40 0.0 0 0 1627.99 274.39
  L 1627.99 271.91
  A 16.37 15.40 -0.0 0 0 1611.62 256.51
  L 1553.90 256.51
  A 0.53 0.53 0.0 0 0 1553.37 257.04"
/>
<path stroke="#888888" vector-effect="non-scaling-stroke" d="
  M 1151.58 494.17
  A 5.81 5.81 0.0 0 0 1145.77 488.36
  L 1136.59 488.36
  A 5.81 5.81 0.0 0 0 1130.78 494.17
  L 1130.78 515.31
  A 5.81 5.81 0.0 0 0 1136.59 521.12
  L 1145.77 521.12
  A 5.81 5.81 0.0 0 0 1151.58 515.31
  L 1151.58 494.17"
/>
<path stroke="#888888" vector-effect="non-scaling-stroke" d="
  M 1365.49 494.15
  A 5.76 5.76 0.0 0 0 1359.73 488.39
  L 1350.45 488.39
  A 5.76 5.76 0.0 0 0 1344.69 494.15
  L 1344.69 515.35
  A 5.76 5.76 0.0 0 0 1350.45 521.11
  L 1359.73 521.11
  A 5.76 5.76 0.0 0 0 1365.49 515.35
  L 1365.49 494.15"
/>
<path stroke="#888888" vector-effect="non-scaling-stroke" d="
  M 1580.7427 494.0638
  A 5.70 5.70 0.0 0 0 1575.0229 488.3838
  L 1565.6629 488.4164
  A 5.70 5.70 0.0 0 0 1559.9829 494.1363
  L 1560.0573 515.4562
  A 5.70 5.70 0.0 0 0 1565.7771 521.1362
  L 1575.1371 521.1036
  A 5.70 5.70 0.0 0 0 1580.8171 515.3837
  L 1580.7427 494.0638"
/>
<path stroke="#888888" vector-effect="non-scaling-stroke" d="
  M 700.73 489.46
  L 700.71 504.62
  A 0.61 0.61 0.0 0 0 701.32 505.23
  L 713.38 505.26
  A 5.87 5.60 0.1 0 0 719.26 499.67
  L 719.26 494.49
  A 5.87 5.60 0.1 0 0 713.40 488.88
  L 701.34 488.85
  A 0.61 0.61 0.0 0 0 700.73 489.46"
/>
<path stroke="#888888" vector-effect="non-scaling-stroke" d="
  M 948.96 489.65
  L 948.94 504.47
  A 0.82 0.82 0.0 0 0 949.76 505.30
  L 961.61 505.32
  A 6.10 6.01 -89.9 0 0 967.63 499.23
  L 967.63 494.97
  A 6.10 6.01 -89.9 0 0 961.63 488.86
  L 949.78 488.84
  A 0.82 0.82 0.0 0 0 948.96 489.65"
/>
<path stroke="#888888" vector-effect="non-scaling-stroke" d="
  M 1432.36 489.66
  L 1432.42 519.86
  A 0.83 0.83 0.0 0 0 1433.25 520.69
  L 1445.35 520.66
  A 6.49 6.40 -0.1 0 0 1451.83 514.25
  L 1451.79 495.19
  A 6.49 6.40 -0.1 0 0 1445.29 488.80
  L 1433.19 488.83
  A 0.83 0.83 0.0 0 0 1432.36 489.66"
/>
<path stroke="#888888" vector-effect="non-scaling-stroke" d="
  M 1478.74 510.15
  A 0.34 0.34 0.0 0 0 1479.06 510.60
  L 1492.15 510.62
  A 0.34 0.34 0.0 0 0 1492.48 510.18
  L 1485.96 490.77
  A 0.34 0.34 0.0 0 0 1485.32 490.77
  L 1478.74 510.15"
/>
</g>
<path fill="#ffffff" d="
  M 0.00 0.00
  L 1899.00 0.00
  L 1899.00 758.00
  L 0.00 758.00
  L 0.00 0.00
  Z
  M 582.02 77.52
  A 0.27 0.27 0.0 0 0 581.75 77.25
  L 567.65 77.25
  A 0.27 0.27 0.0 0 0 567.38 77.52
  L 567.38 672.32
  A 0.27 0.27 0.0 0 0 567.65 672.59
  L 581.75 672.59
  A 0.27 0.27 0.0 0 0 582.02 672.32
  L 582.02 77.52
  Z
  M 252.79 245.30
  A 26.74 26.74 0.0 0 0 226.05 218.56
  A 26.74 26.74 0.0 0 0 199.31 245.30
  A 26.74 26.74 0.0 0 0 226.05 272.04
  A 26.74 26.74 0.0 0 0 252.79 245.30
  Z
  M 960.40 243.81
  Q 959.47 244.22 958.21 245.21
  Q 949.00 252.43 943.35 261.42
  C 932.26 279.07 930.56 302.21 935.94 322.04
  C 944.28 352.78 970.47 368.29 1000.93 371.81
  Q 1025.94 374.69 1047.69 368.79
  Q 1059.42 365.61 1068.03 360.16
  Q 1091.43 345.34 1097.40 317.49
  C 1102.80 292.30 1096.91 261.93 1075.03 245.58
  C 1056.00 231.35 1031.75 227.52 1008.28 228.71
  Q 983.70 229.96 963.37 241.55
  Q 962.18 242.23 961.21 243.24
  A 2.71 2.66 9.3 0 1 960.40 243.81
  Z
  M 1201.28 319.96
  Q 1204.74 322.35 1206.47 326.22
  C 1208.53 333.95 1203.73 340.85 1196.76 343.56
  Q 1188.07 346.95 1178.20 347.43
  Q 1164.47 348.10 1152.95 345.30
  Q 1145.14 343.40 1137.82 338.62
  Q 1131.76 334.65 1127.85 327.28
  A 1.15 1.15 0.0 0 0 1126.55 326.70
  L 1096.93 334.14
  A 0.40 0.39 -21.7 0 0 1096.68 334.71
  C 1102.64 346.10 1111.88 356.42 1123.37 362.33
  C 1133.95 367.78 1144.43 370.63 1155.87 371.65
  Q 1166.30 372.58 1176.30 372.47
  Q 1189.27 372.32 1202.59 369.26
  C 1225.00 364.12 1240.69 349.10 1239.37 324.40
  Q 1238.82 314.17 1232.83 306.05
  C 1227.04 298.20 1216.78 293.61 1207.38 291.32
  Q 1198.75 289.22 1195.99 288.77
  Q 1177.84 285.77 1160.43 282.63
  Q 1157.80 282.15 1155.22 281.49
  C 1148.61 279.80 1141.49 278.49 1139.75 270.74
  L 1139.98 264.73
  Q 1141.27 260.90 1144.01 258.63
  Q 1147.53 255.73 1153.09 254.47
  C 1164.72 251.84 1177.96 252.12 1189.65 255.21
  Q 1196.63 257.05 1202.22 261.21
  Q 1205.96 263.99 1208.41 268.11
  Q 1208.95 269.03 1209.99 268.77
  L 1240.62 261.12
  Q 1241.04 261.02 1240.83 260.64
  Q 1232.93 246.60 1218.57 239.04
  Q 1207.10 233.00 1196.91 230.98
  Q 1178.07 227.24 1156.93 229.13
  Q 1142.64 230.41 1131.29 235.59
  C 1112.80 244.03 1102.81 260.33 1108.14 281.17
  C 1113.08 300.54 1134.39 307.18 1152.02 310.13
  Q 1169.56 313.07 1186.74 315.74
  Q 1194.95 317.02 1201.28 319.96
  Z
  M 1732.43 246.92
  Q 1729.42 248.92 1726.50 252.19
  Q 1717.30 262.44 1713.21 274.66
  C 1705.09 298.92 1708.56 331.29 1728.16 350.37
  Q 1743.23 365.05 1766.03 369.92
  Q 1794.16 375.93 1821.56 369.37
  Q 1835.18 366.11 1845.76 359.09
  C 1859.66 349.85 1869.33 335.64 1873.11 319.27
  C 1879.32 292.40 1872.92 260.93 1849.80 244.61
  Q 1834.66 233.93 1816.14 230.72
  Q 1800.21 227.96 1784.96 228.67
  Q 1760.92 229.80 1740.48 240.95
  Q 1739.18 241.66 1737.23 243.18
  Q 1735.64 244.42 1733.87 245.35
  Q 1733.46 245.57 1733.09 246.21
  Q 1732.84 246.64 1732.43 246.92
  Z
  M 688.65 317.57
  A 0.30 0.30 0.0 0 1 688.95 317.27
  Q 713.83 317.24 737.47 317.25
  Q 751.54 317.25 759.48 315.31
  Q 786.84 308.63 789.74 279.92
  Q 790.84 268.97 787.11 257.75
  C 781.09 239.70 763.25 232.88 745.61 232.82
  Q 702.67 232.66 655.81 232.78
  Q 655.25 232.78 655.25 233.35
  L 655.24 367.75
  A 0.51 0.50 0.0 0 0 655.75 368.25
  L 688.20 368.24
  A 0.45 0.44 0.0 0 0 688.65 367.80
  L 688.65 317.57
  Z
  M 899.71 311.56
  C 911.05 309.83 922.77 305.28 928.67 294.93
  C 940.89 273.50 933.07 242.62 907.15 235.22
  Q 898.58 232.77 888.63 232.76
  Q 840.27 232.74 791.79 232.75
  A 0.29 0.28 -0.0 0 0 791.50 233.03
  L 791.50 367.75
  A 0.50 0.50 0.0 0 0 792.00 368.25
  L 824.78 368.24
  A 0.52 0.51 0.0 0 0 825.30 367.73
  L 825.29 314.23
  A 0.48 0.48 0.0 0 1 825.77 313.75
  L 863.76 313.75
  Q 864.06 313.75 864.23 314.00
  L 899.79 367.73
  A 1.18 1.15 72.8 0 0 900.76 368.26
  L 939.71 368.24
  A 0.28 0.28 0.0 0 0 939.94 367.80
  L 899.39 312.32
  Q 898.93 311.68 899.71 311.56
  Z
  M 1280.61 317.57
  A 0.34 0.34 0.0 0 1 1280.96 317.23
  Q 1309.54 317.36 1334.51 317.14
  C 1353.72 316.97 1371.20 311.65 1378.91 292.54
  C 1383.03 282.33 1382.73 268.54 1379.18 257.96
  C 1375.20 246.09 1365.72 238.01 1353.57 234.98
  Q 1345.05 232.85 1337.67 232.82
  Q 1297.77 232.67 1247.84 232.78
  Q 1247.24 232.78 1247.24 233.38
  L 1247.23 367.49
  A 0.76 0.76 0.0 0 0 1247.99 368.25
  L 1280.19 368.24
  A 0.42 0.42 0.0 0 0 1280.61 367.82
  L 1280.61 317.57
  Z
  M 1417.79 343.99
  A 0.50 0.50 0.0 0 1 1417.29 343.49
  L 1417.27 312.51
  A 0.50 0.50 0.0 0 1 1417.77 312.01
  L 1506.01 311.99
  A 0.50 0.50 0.0 0 0 1506.51 311.49
  L 1506.52 288.25
  A 0.50 0.50 0.0 0 0 1506.02 287.75
  L 1417.77 287.75
  A 0.50 0.50 0.0 0 1 1417.27 287.25
  L 1417.28 257.75
  A 0.50 0.50 0.0 0 1 1417.78 257.25
  L 1509.09 257.25
  A 0.50 0.50 0.0 0 0 1509.59 256.75
  L 1509.61 233.25
  A 0.50 0.50 0.0 0 0 1509.11 232.75
  L 1383.79 232.75
  A 0.50 0.50 0.0 0 0 1383.29 233.25
  L 1383.28 367.75
  A 0.50 0.50 0.0 0 0 1383.78 368.25
  L 1512.97 368.25
  A 0.50 0.50 0.0 0 0 1513.47 367.75
  L 1513.46 344.51
  A 0.50 0.50 0.0 0 0 1512.96 344.01
  L 1417.79 343.99
  Z
  M 1627.32 311.66
  C 1640.41 309.57 1652.63 304.65 1658.45 291.66
  C 1667.19 272.16 1661.21 245.45 1639.40 236.73
  Q 1631.96 233.75 1624.01 233.02
  Q 1621.27 232.77 1607.96 232.76
  Q 1561.58 232.72 1520.06 232.76
  A 0.49 0.48 0.0 0 0 1519.57 233.24
  L 1519.57 367.79
  A 0.47 0.46 0.0 0 0 1520.04 368.25
  L 1552.84 368.24
  A 0.58 0.58 0.0 0 0 1553.42 367.66
  L 1553.41 314.17
  A 0.42 0.42 0.0 0 1 1553.83 313.75
  L 1591.74 313.75
  Q 1592.15 313.75 1592.38 314.10
  L 1627.81 367.64
  Q 1628.22 368.26 1628.96 368.26
  L 1701.05 368.25
  A 0.49 0.49 0.0 0 0 1701.54 367.76
  L 1701.54 233.08
  Q 1701.54 232.76 1701.22 232.76
  L 1667.79 232.75
  A 0.20 0.20 0.0 0 0 1667.59 232.95
  L 1667.58 365.26
  Q 1667.58 367.30 1666.39 365.65
  Q 1647.03 338.97 1627.49 312.48
  Q 1627.37 312.32 1627.21 312.22
  Q 1626.48 311.79 1627.32 311.66
  Z
  M 195.02 277.79
  A 26.72 26.72 0.0 0 0 168.30 251.07
  A 26.72 26.72 0.0 0 0 141.58 277.79
  A 26.72 26.72 0.0 0 0 168.30 304.51
  A 26.72 26.72 0.0 0 0 195.02 277.79
  Z
  M 310.54 277.79
  A 26.72 26.72 0.0 0 0 283.82 251.07
  A 26.72 26.72 0.0 0 0 257.10 277.79
  A 26.72 26.72 0.0 0 0 283.82 304.51
  A 26.72 26.72 0.0 0 0 310.54 277.79
  Z
  M 368.33 309.76
  A 26.75 26.75 0.0 0 0 341.58 283.01
  A 26.75 26.75 0.0 0 0 314.83 309.76
  A 26.75 26.75 0.0 0 0 341.58 336.51
  A 26.75 26.75 0.0 0 0 368.33 309.76
  Z
  M 137.23 309.90
  A 26.70 26.70 0.0 0 0 110.53 283.20
  A 26.70 26.70 0.0 0 0 83.83 309.90
  A 26.70 26.70 0.0 0 0 110.53 336.60
  A 26.70 26.70 0.0 0 0 137.23 309.90
  Z
  M 252.16 311.15
  A 26.70 26.70 0.0 0 0 225.46 284.45
  A 26.70 26.70 0.0 0 0 198.76 311.15
  A 26.70 26.70 0.0 0 0 225.46 337.85
  A 26.70 26.70 0.0 0 0 252.16 311.15
  Z
  M 79.53 342.00
  A 26.76 26.76 0.0 0 0 52.77 315.24
  A 26.76 26.76 0.0 0 0 26.01 342.00
  A 26.76 26.76 0.0 0 0 52.77 368.76
  A 26.76 26.76 0.0 0 0 79.53 342.00
  Z
  M 426.10 342.01
  A 26.76 26.76 0.0 0 0 399.34 315.25
  A 26.76 26.76 0.0 0 0 372.58 342.01
  A 26.76 26.76 0.0 0 0 399.34 368.77
  A 26.76 26.76 0.0 0 0 426.10 342.01
  Z
  M 194.41 343.66
  A 26.70 26.70 0.0 0 0 167.71 316.96
  A 26.70 26.70 0.0 0 0 141.01 343.66
  A 26.70 26.70 0.0 0 0 167.71 370.36
  A 26.70 26.70 0.0 0 0 194.41 343.66
  Z
  M 309.92 343.66
  A 26.70 26.70 0.0 0 0 283.22 316.96
  A 26.70 26.70 0.0 0 0 256.52 343.66
  A 26.70 26.70 0.0 0 0 283.22 370.36
  A 26.70 26.70 0.0 0 0 309.92 343.66
  Z
  M 367.72 375.53
  A 26.73 26.73 0.0 0 0 340.99 348.80
  A 26.73 26.73 0.0 0 0 314.26 375.53
  A 26.73 26.73 0.0 0 0 340.99 402.26
  A 26.73 26.73 0.0 0 0 367.72 375.53
  Z
  M 136.70 375.76
  A 26.76 26.76 0.0 0 0 109.94 349.00
  A 26.76 26.76 0.0 0 0 83.18 375.76
  A 26.76 26.76 0.0 0 0 109.94 402.52
  A 26.76 26.76 0.0 0 0 136.70 375.76
  Z
  M 78.91 407.79
  A 26.73 26.73 0.0 0 0 52.18 381.06
  A 26.73 26.73 0.0 0 0 25.45 407.79
  A 26.73 26.73 0.0 0 0 52.18 434.52
  A 26.73 26.73 0.0 0 0 78.91 407.79
  Z
  M 425.47 407.79
  A 26.72 26.72 0.0 0 0 398.75 381.07
  A 26.72 26.72 0.0 0 0 372.03 407.79
  A 26.72 26.72 0.0 0 0 398.75 434.51
  A 26.72 26.72 0.0 0 0 425.47 407.79
  Z
  M 1142.89 473.13
  A 0.41 0.41 0.0 0 0 1142.54 472.50
  L 1139.08 472.51
  A 0.41 0.41 0.0 0 0 1138.71 472.74
  L 1134.87 480.58
  A 0.41 0.41 0.0 0 0 1135.27 481.17
  L 1137.68 480.98
  A 0.41 0.41 0.0 0 0 1137.99 480.79
  L 1142.89 473.13
  Z
  M 1152.17 473.08
  A 0.36 0.36 0.0 0 0 1151.87 472.52
  L 1148.24 472.56
  A 0.36 0.36 0.0 0 0 1147.92 472.76
  L 1143.97 480.71
  A 0.36 0.36 0.0 0 0 1144.34 481.23
  L 1146.84 480.91
  A 0.36 0.36 0.0 0 0 1147.09 480.75
  L 1152.17 473.08
  Z
  M 674.41 473.32
  A 0.36 0.36 0.0 0 0 674.11 472.77
  L 670.49 472.80
  A 0.36 0.36 0.0 0 0 670.17 473.00
  L 666.23 480.90
  A 0.36 0.36 0.0 0 0 666.58 481.42
  L 669.02 481.25
  A 0.36 0.36 0.0 0 0 669.30 481.09
  L 674.41 473.32
  Z
  M 799.41 473.29
  A 0.36 0.36 0.0 0 0 799.10 472.73
  L 795.45 472.82
  A 0.36 0.36 0.0 0 0 795.13 473.02
  L 791.17 480.94
  A 0.36 0.36 0.0 0 0 791.52 481.46
  L 794.03 481.25
  A 0.36 0.36 0.0 0 0 794.30 481.08
  L 799.41 473.29
  Z
  M 1493.05 473.34
  A 0.41 0.41 0.0 0 0 1492.69 472.70
  L 1489.03 472.88
  A 0.41 0.41 0.0 0 0 1488.68 473.11
  L 1484.91 480.83
  A 0.41 0.41 0.0 0 0 1485.30 481.42
  L 1487.53 481.29
  A 0.41 0.41 0.0 0 0 1487.84 481.11
  L 1493.05 473.34
  Z
  M 1155.74 494.07
  A 9.29 9.29 0.0 0 0 1146.45 484.78
  L 1135.89 484.78
  A 9.29 9.29 0.0 0 0 1126.60 494.07
  L 1126.60 515.41
  A 9.29 9.29 0.0 0 0 1135.89 524.70
  L 1146.45 524.70
  A 9.29 9.29 0.0 0 0 1155.74 515.41
  L 1155.74 494.07
  Z
  M 1369.66 494.06
  A 9.27 9.27 0.0 0 0 1360.39 484.79
  L 1349.77 484.79
  A 9.27 9.27 0.0 0 0 1340.50 494.06
  L 1340.50 515.44
  A 9.27 9.27 0.0 0 0 1349.77 524.71
  L 1360.39 524.71
  A 9.27 9.27 0.0 0 0 1369.66 515.44
  L 1369.66 494.06
  Z
  M 1585.0185 494.1855
  A 9.38 9.38 0.0 0 0 1575.6548 484.7891
  L 1565.2349 484.7709
  A 9.38 9.38 0.0 0 0 1555.8385 494.1346
  L 1555.8015 515.3145
  A 9.38 9.38 0.0 0 0 1565.1652 524.7109
  L 1575.5851 524.7291
  A 9.38 9.38 0.0 0 0 1584.9815 515.3654
  L 1585.0185 494.1855
  Z
  M 660.11 488.89
  Q 669.43 488.87 679.02 488.85
  A 1.47 1.45 -1.9 0 0 680.48 487.31
  Q 680.47 487.17 680.51 487.04
  Q 681.13 485.24 679.18 485.24
  Q 668.09 485.25 656.00 485.26
  Q 655.25 485.27 655.25 486.02
  L 655.23 523.65
  Q 655.23 524.20 655.78 524.19
  L 679.73 524.05
  Q 680.50 524.05 680.51 523.27
  L 680.54 521.27
  Q 680.55 520.74 680.02 520.74
  L 659.99 520.59
  A 0.60 0.59 0.5 0 1 659.39 519.99
  L 659.42 506.83
  Q 659.42 506.19 660.05 506.19
  L 674.21 506.12
  A 1.08 1.08 0.0 0 0 675.29 505.05
  L 675.32 503.42
  Q 675.33 502.51 674.42 502.51
  L 660.20 502.49
  Q 659.42 502.49 659.42 501.71
  L 659.41 489.59
  Q 659.41 488.89 660.11 488.89
  Z
  M 701.41 508.92
  L 710.88 508.87
  Q 711.78 508.87 712.22 509.66
  L 719.71 523.00
  Q 720.38 524.19 721.75 524.11
  L 723.96 523.98
  Q 725.42 523.90 724.65 522.65
  L 716.33 509.13
  Q 715.99 508.57 716.62 508.42
  Q 722.96 506.88 723.48 500.01
  C 724.04 492.48 722.78 485.73 713.67 485.37
  Q 706.51 485.10 697.14 485.30
  Q 696.49 485.31 696.49 485.96
  L 696.48 523.69
  Q 696.48 524.14 696.93 524.12
  L 700.28 523.98
  Q 700.77 523.96 700.77 523.47
  L 700.75 509.59
  Q 700.74 508.92 701.41 508.92
  Z
  M 753.19 489.41
  A 0.50 0.50 0.0 0 1 753.68 488.91
  L 764.60 488.76
  A 0.50 0.50 0.0 0 0 765.09 488.31
  L 765.36 485.81
  A 0.50 0.50 0.0 0 0 764.86 485.26
  L 737.30 485.26
  A 0.50 0.50 0.0 0 0 736.80 485.73
  L 736.63 488.32
  A 0.50 0.50 0.0 0 0 737.12 488.85
  L 748.29 488.90
  A 0.50 0.50 0.0 0 1 748.79 489.40
  L 748.81 523.61
  A 0.50 0.50 0.0 0 0 749.32 524.11
  L 752.69 524.02
  A 0.50 0.50 0.0 0 0 753.18 523.52
  L 753.19 489.41
  Z
  M 785.08 502.47
  A 0.69 0.69 0.0 0 1 784.39 501.78
  L 784.38 489.60
  A 0.69 0.69 0.0 0 1 785.07 488.91
  L 804.61 488.82
  A 0.69 0.69 0.0 0 0 805.29 488.22
  L 805.57 486.04
  A 0.69 0.69 0.0 0 0 804.89 485.26
  L 780.92 485.25
  A 0.69 0.69 0.0 0 0 780.23 485.94
  L 780.25 523.48
  A 0.69 0.69 0.0 0 0 780.95 524.17
  L 804.87 523.98
  A 0.69 0.69 0.0 0 0 805.55 523.29
  L 805.56 521.50
  A 0.69 0.69 0.0 0 0 804.87 520.80
  L 785.04 520.65
  A 0.69 0.69 0.0 0 1 784.35 519.95
  L 784.41 506.87
  A 0.69 0.69 0.0 0 1 785.09 506.18
  L 799.56 506.00
  A 0.69 0.69 0.0 0 0 800.24 505.33
  L 800.32 503.26
  A 0.69 0.69 0.0 0 0 799.63 502.55
  L 785.08 502.47
  Z
  M 825.62 506.92
  A 0.80 0.80 0.0 0 1 826.42 506.12
  L 834.37 506.10
  A 0.80 0.80 0.0 0 1 835.07 506.52
  L 844.53 523.70
  A 0.80 0.80 0.0 0 0 845.27 524.11
  L 848.50 523.97
  A 0.80 0.80 0.0 0 0 849.15 522.76
  L 838.44 504.64
  A 0.80 0.80 0.0 0 1 838.44 503.82
  L 848.61 486.60
  A 0.80 0.80 0.0 0 0 847.95 485.39
  L 844.77 485.29
  A 0.80 0.80 0.0 0 0 844.04 485.70
  L 835.07 502.02
  A 0.80 0.80 0.0 0 1 834.38 502.44
  L 826.44 502.53
  A 0.80 0.80 0.0 0 1 825.63 501.73
  L 825.72 486.01
  A 0.80 0.80 0.0 0 0 824.90 485.21
  L 822.26 485.26
  A 0.80 0.80 0.0 0 0 821.47 486.06
  L 821.48 523.35
  A 0.80 0.80 0.0 0 0 822.32 524.15
  L 824.92 524.03
  A 0.80 0.80 0.0 0 0 825.69 523.23
  L 825.62 506.92
  Z
  M 872.23 489.56
  L 872.25 523.59
  Q 872.25 524.18 872.84 524.15
  L 875.72 524.01
  Q 876.41 523.98 876.41 523.28
  L 876.42 489.48
  Q 876.42 488.88 877.02 488.87
  L 886.79 488.86
  Q 888.35 488.86 888.58 487.32
  Q 888.64 486.90 888.73 486.48
  Q 889.00 485.25 887.74 485.25
  L 860.50 485.25
  Q 859.75 485.25 859.90 485.98
  Q 860.10 487.02 859.92 488.15
  Q 859.80 488.85 860.51 488.85
  L 871.56 488.89
  Q 872.23 488.89 872.23 489.56
  Z
  M 908.11 520.62
  A 0.54 0.54 0.0 0 1 907.57 520.08
  L 907.61 506.73
  A 0.54 0.54 0.0 0 1 908.14 506.20
  L 922.94 506.09
  A 0.54 0.54 0.0 0 0 923.48 505.56
  L 923.52 503.07
  A 0.54 0.54 0.0 0 0 922.98 502.52
  L 908.16 502.49
  A 0.54 0.54 0.0 0 1 907.62 501.95
  L 907.61 489.42
  A 0.54 0.54 0.0 0 1 908.15 488.88
  L 927.87 488.85
  A 0.54 0.54 0.0 0 0 928.40 488.42
  L 928.91 485.91
  A 0.54 0.54 0.0 0 0 928.38 485.26
  L 904.02 485.25
  A 0.54 0.54 0.0 0 0 903.48 485.79
  L 903.49 523.65
  A 0.54 0.54 0.0 0 0 904.03 524.19
  L 928.18 524.04
  A 0.54 0.54 0.0 0 0 928.72 523.52
  L 928.80 521.29
  A 0.54 0.54 0.0 0 0 928.26 520.73
  L 908.11 520.62
  Z
  M 964.85 508.43
  Q 971.24 506.93 971.72 500.04
  C 972.30 491.84 970.84 485.61 961.47 485.35
  Q 953.99 485.14 945.40 485.29
  Q 944.71 485.30 944.71 485.99
  L 944.73 523.66
  Q 944.73 524.10 945.16 524.10
  L 948.74 524.05
  Q 949.02 524.05 949.02 523.76
  L 948.99 509.45
  A 0.56 0.55 0.0 0 1 949.55 508.90
  L 959.44 508.88
  A 0.97 0.96 -14.9 0 1 960.30 509.37
  L 968.14 523.25
  Q 968.65 524.16 969.69 524.16
  Q 971.26 524.17 972.64 523.75
  Q 973.48 523.49 973.01 522.74
  L 964.56 509.13
  Q 964.22 508.58 964.85 508.43
  Z
  M 994.65 520.57
  A 0.49 0.49 0.0 0 1 994.16 520.08
  L 994.19 506.68
  A 0.49 0.49 0.0 0 1 994.68 506.19
  L 1009.52 506.14
  A 0.49 0.49 0.0 0 0 1010.01 505.66
  L 1010.03 502.99
  A 0.49 0.49 0.0 0 0 1009.55 502.50
  L 994.68 502.48
  A 0.49 0.49 0.0 0 1 994.19 501.99
  L 994.22 489.40
  A 0.49 0.49 0.0 0 1 994.71 488.91
  L 1014.61 488.81
  A 0.49 0.49 0.0 0 0 1015.09 488.37
  L 1015.36 485.79
  A 0.49 0.49 0.0 0 0 1014.87 485.25
  L 990.45 485.25
  A 0.49 0.49 0.0 0 0 989.96 485.74
  L 989.98 523.68
  A 0.49 0.49 0.0 0 0 990.47 524.17
  L 1014.77 524.10
  A 0.49 0.49 0.0 0 0 1015.26 523.63
  L 1015.33 521.16
  A 0.49 0.49 0.0 0 0 1014.85 520.66
  L 994.65 520.57
  Z
  M 1064.84 493.97
  L 1068.39 523.92
  Q 1068.41 524.07 1068.56 524.07
  L 1072.58 523.95
  Q 1072.87 523.94 1072.83 523.66
  L 1067.70 485.80
  Q 1067.62 485.20 1067.02 485.22
  C 1065.48 485.27 1062.85 484.70 1062.10 486.49
  Q 1056.92 498.94 1051.13 512.88
  A 0.32 0.32 0.0 0 1 1050.54 512.88
  L 1039.27 485.84
  Q 1039.06 485.34 1038.52 485.28
  C 1037.47 485.18 1036.33 485.35 1035.28 485.23
  Q 1033.98 485.08 1033.81 486.37
  Q 1031.43 504.58 1028.88 523.35
  A 0.65 0.64 3.9 0 0 1029.52 524.08
  L 1032.72 524.05
  A 0.60 0.60 0.0 0 0 1033.32 523.52
  L 1036.97 492.74
  A 0.42 0.42 0.0 0 1 1037.78 492.63
  Q 1042.72 504.64 1048.35 517.94
  Q 1048.59 518.52 1049.28 518.72
  Q 1050.31 519.01 1051.58 518.96
  Q 1052.94 518.91 1053.75 516.98
  Q 1058.61 505.41 1063.42 493.77
  Q 1064.50 491.15 1064.84 493.97
  Z
  M 1096.41 488.89
  A 0.52 0.52 0.0 0 1 1096.93 489.41
  L 1096.99 523.56
  A 0.52 0.52 0.0 0 0 1097.51 524.08
  L 1100.66 524.06
  A 0.52 0.52 0.0 0 0 1101.18 523.54
  L 1101.19 489.42
  A 0.52 0.52 0.0 0 1 1101.70 488.90
  L 1112.72 488.79
  A 0.52 0.52 0.0 0 0 1113.23 488.32
  L 1113.47 485.83
  A 0.52 0.52 0.0 0 0 1112.96 485.26
  L 1085.30 485.25
  A 0.52 0.52 0.0 0 0 1084.78 485.74
  L 1084.64 488.30
  A 0.52 0.52 0.0 0 0 1085.16 488.85
  L 1096.41 488.89
  Z
  M 1202.36 492.77
  Q 1202.55 491.14 1203.18 492.65
  L 1213.88 518.25
  Q 1214.08 518.74 1214.60 518.81
  Q 1216.28 519.06 1218.02 518.73
  A 0.88 0.87 -84.1 0 0 1218.66 518.20
  L 1229.33 492.61
  A 0.40 0.40 0.0 0 1 1230.10 492.71
  L 1233.76 523.48
  Q 1233.83 524.13 1234.49 524.12
  L 1237.50 524.03
  A 0.70 0.69 85.5 0 0 1238.17 523.24
  L 1233.19 486.05
  Q 1233.08 485.27 1232.29 485.26
  L 1229.08 485.25
  Q 1228.51 485.24 1228.15 485.68
  Q 1227.52 486.45 1227.13 487.39
  Q 1221.93 500.06 1216.67 512.48
  A 0.50 0.50 0.0 0 1 1215.75 512.47
  L 1204.65 485.73
  A 0.75 0.74 -11.3 0 0 1203.94 485.26
  L 1200.10 485.27
  Q 1199.45 485.27 1199.36 485.91
  L 1194.35 523.02
  Q 1194.21 524.09 1195.28 524.06
  L 1197.86 524.00
  Q 1198.69 523.98 1198.79 523.15
  L 1202.36 492.77
  Z
  M 1260.33 520.62
  A 0.50 0.50 0.0 0 1 1259.83 520.12
  L 1259.85 506.70
  A 0.50 0.50 0.0 0 1 1260.35 506.20
  L 1275.22 506.11
  A 0.50 0.50 0.0 0 0 1275.72 505.61
  L 1275.72 503.00
  A 0.50 0.50 0.0 0 0 1275.22 502.50
  L 1260.33 502.50
  A 0.50 0.50 0.0 0 1 1259.83 502.00
  L 1259.84 489.41
  A 0.50 0.50 0.0 0 1 1260.34 488.91
  L 1280.19 488.81
  A 0.50 0.50 0.0 0 0 1280.68 488.41
  L 1281.17 485.86
  A 0.50 0.50 0.0 0 0 1280.68 485.26
  L 1256.24 485.25
  A 0.50 0.50 0.0 0 0 1255.74 485.75
  L 1255.72 523.67
  A 0.50 0.50 0.0 0 0 1256.22 524.17
  L 1280.52 524.09
  A 0.50 0.50 0.0 0 0 1281.01 523.60
  L 1281.04 521.18
  A 0.50 0.50 0.0 0 0 1280.54 520.68
  L 1260.33 520.62
  Z
  M 1317.79 520.60
  Q 1312.25 520.63 1306.71 520.65
  C 1302.94 520.66 1300.16 518.63 1300.16 514.80
  Q 1300.19 504.43 1300.20 494.45
  C 1300.20 491.19 1302.74 488.93 1305.90 488.90
  Q 1312.54 488.86 1320.43 488.86
  A 1.15 1.14 -3.1 0 0 1321.57 487.59
  Q 1321.49 486.93 1321.75 486.30
  Q 1322.17 485.31 1321.10 485.29
  Q 1312.42 485.08 1305.28 485.44
  Q 1296.08 485.90 1295.89 495.65
  Q 1295.70 505.50 1295.87 514.02
  Q 1296.06 523.85 1306.27 524.10
  Q 1313.46 524.27 1322.05 524.09
  Q 1322.87 524.07 1322.87 523.25
  L 1322.94 503.53
  Q 1322.94 503.12 1322.53 503.13
  L 1319.05 503.20
  Q 1318.55 503.21 1318.55 503.70
  L 1318.58 519.81
  Q 1318.58 520.60 1317.79 520.60
  Z
  M 1393.07 520.62
  A 0.42 0.42 0.0 0 1 1392.65 520.20
  L 1392.68 485.67
  A 0.42 0.42 0.0 0 0 1392.26 485.25
  L 1388.91 485.29
  A 0.42 0.42 0.0 0 0 1388.49 485.71
  L 1388.48 523.74
  A 0.42 0.42 0.0 0 0 1388.90 524.16
  L 1413.07 524.02
  A 0.42 0.42 0.0 0 0 1413.49 523.61
  L 1413.56 521.24
  A 0.42 0.42 0.0 0 0 1413.14 520.81
  L 1393.07 520.62
  Z
  M 1428.26 485.70
  L 1428.40 523.78
  A 0.42 0.42 0.0 0 0 1428.82 524.20
  L 1445.95 524.14
  A 10.07 9.92 -0.2 0 0 1455.98 514.18
  L 1455.92 495.10
  A 10.07 9.92 -0.2 0 0 1445.81 485.22
  L 1428.68 485.28
  A 0.42 0.42 0.0 0 0 1428.26 485.70
  Z
  M 1493.47 514.07
  A 0.80 0.80 0.0 0 1 1494.23 514.62
  L 1497.21 523.58
  A 0.80 0.80 0.0 0 0 1498.00 524.12
  L 1501.06 523.99
  A 0.80 0.80 0.0 0 0 1501.77 522.91
  L 1488.17 485.80
  A 0.80 0.80 0.0 0 0 1487.42 485.27
  L 1483.77 485.31
  A 0.80 0.80 0.0 0 0 1483.03 485.83
  L 1469.46 523.02
  A 0.80 0.80 0.0 0 0 1470.23 524.09
  L 1473.37 524.01
  A 0.80 0.80 0.0 0 0 1474.12 523.46
  L 1476.99 514.66
  A 0.80 0.80 0.0 0 1 1477.75 514.11
  L 1493.47 514.07
  Z
  M 1535.80 514.69
  C 1536.01 518.32 1533.19 520.54 1529.77 520.55
  Q 1522.35 520.57 1514.35 520.65
  Q 1513.73 520.66 1513.72 521.28
  L 1513.70 523.49
  Q 1513.69 524.07 1514.27 524.08
  Q 1524.84 524.40 1531.55 523.98
  Q 1536.79 523.66 1538.89 519.29
  C 1541.64 513.59 1540.27 505.16 1532.84 503.54
  Q 1527.58 502.40 1522.26 501.27
  C 1518.88 500.55 1517.96 496.66 1518.60 493.74
  Q 1519.63 489.02 1524.52 488.93
  Q 1530.23 488.84 1537.80 488.87
  Q 1539.26 488.87 1539.28 487.41
  L 1539.30 486.21
  Q 1539.31 485.29 1538.39 485.28
  Q 1530.12 485.12 1523.83 485.39
  Q 1514.71 485.77 1514.30 495.03
  Q 1513.92 503.57 1522.33 505.29
  Q 1527.00 506.24 1531.85 507.41
  C 1536.31 508.50 1535.59 511.22 1535.80 514.69
  Z
  M 1607.98 506.87
  A 0.76 0.76 0.0 0 1 1608.74 506.11
  L 1616.61 506.12
  A 0.76 0.76 0.0 0 1 1617.28 506.51
  L 1626.83 523.71
  A 0.76 0.76 0.0 0 0 1627.53 524.10
  L 1630.84 523.93
  A 0.76 0.76 0.0 0 0 1631.46 522.79
  L 1620.68 504.61
  A 0.76 0.76 0.0 0 1 1620.68 503.83
  L 1630.99 486.46
  A 0.76 0.76 0.0 0 0 1630.35 485.32
  L 1627.03 485.26
  A 0.76 0.76 0.0 0 0 1626.35 485.65
  L 1617.34 502.05
  A 0.76 0.76 0.0 0 1 1616.69 502.45
  L 1608.74 502.54
  A 0.76 0.76 0.0 0 1 1607.97 501.78
  L 1608.05 485.98
  A 0.76 0.76 0.0 0 0 1607.28 485.22
  L 1604.49 485.26
  A 0.76 0.76 0.0 0 0 1603.74 486.02
  L 1603.74 523.38
  A 0.76 0.76 0.0 0 0 1604.52 524.14
  L 1607.29 524.08
  A 0.76 0.76 0.0 0 0 1608.03 523.32
  L 1607.98 506.87
  Z"
/>
<rect fill="#111111" x="567.38" y="77.25" width="14.64" height="595.34" rx="0.27"/>
<circle fill="#2157a5" cx="226.05" cy="245.30" r="26.74"/>
<path fill="#111111" d="
  M 961.21 243.24
  Q 962.18 242.23 963.37 241.55
  Q 983.70 229.96 1008.28 228.71
  C 1031.75 227.52 1056.00 231.35 1075.03 245.58
  C 1096.91 261.93 1102.80 292.30 1097.40 317.49
  Q 1091.43 345.34 1068.03 360.16
  Q 1059.42 365.61 1047.69 368.79
  Q 1025.94 374.69 1000.93 371.81
  C 970.47 368.29 944.28 352.78 935.94 322.04
  C 930.56 302.21 932.26 279.07 943.35 261.42
  Q 949.00 252.43 958.21 245.21
  Q 959.47 244.22 960.40 243.81
  A 2.71 2.66 9.3 0 0 961.21 243.24
  Z
  M 987.56 261.56
  Q 977.91 267.81 972.77 278.78
  Q 966.76 291.58 968.19 307.14
  C 970.11 328.02 984.92 345.05 1006.38 347.62
  C 1018.60 349.07 1029.52 348.06 1040.41 342.93
  C 1063.85 331.88 1070.18 300.37 1059.79 278.61
  C 1051.81 261.90 1035.20 253.40 1017.00 253.11
  Q 1000.97 252.86 987.56 261.56
  Z"
/>
<path fill="#111111" d="
  M 1139.98 264.73
  Q 1138.08 267.27 1139.75 270.74
  C 1141.49 278.49 1148.61 279.80 1155.22 281.49
  Q 1157.80 282.15 1160.43 282.63
  Q 1177.84 285.77 1195.99 288.77
  Q 1198.75 289.22 1207.38 291.32
  C 1216.78 293.61 1227.04 298.20 1232.83 306.05
  Q 1238.82 314.17 1239.37 324.40
  C 1240.69 349.10 1225.00 364.12 1202.59 369.26
  Q 1189.27 372.32 1176.30 372.47
  Q 1166.30 372.58 1155.87 371.65
  C 1144.43 370.63 1133.95 367.78 1123.37 362.33
  C 1111.88 356.42 1102.64 346.10 1096.68 334.71
  A 0.40 0.39 -21.7 0 1 1096.93 334.14
  L 1126.55 326.70
  A 1.15 1.15 0.0 0 1 1127.85 327.28
  Q 1131.76 334.65 1137.82 338.62
  Q 1145.14 343.40 1152.95 345.30
  Q 1164.47 348.10 1178.20 347.43
  Q 1188.07 346.95 1196.76 343.56
  C 1203.73 340.85 1208.53 333.95 1206.47 326.22
  Q 1205.70 321.79 1201.28 319.96
  Q 1194.95 317.02 1186.74 315.74
  Q 1169.56 313.07 1152.02 310.13
  C 1134.39 307.18 1113.08 300.54 1108.14 281.17
  C 1102.81 260.33 1112.80 244.03 1131.29 235.59
  Q 1142.64 230.41 1156.93 229.13
  Q 1178.07 227.24 1196.91 230.98
  Q 1207.10 233.00 1218.57 239.04
  Q 1232.93 246.60 1240.83 260.64
  Q 1241.04 261.02 1240.62 261.12
  L 1209.99 268.77
  Q 1208.95 269.03 1208.41 268.11
  Q 1205.96 263.99 1202.22 261.21
  Q 1196.63 257.05 1189.65 255.21
  C 1177.96 252.12 1164.72 251.84 1153.09 254.47
  Q 1147.53 255.73 1144.01 258.63
  Q 1141.27 260.90 1139.98 264.73
  Z"
/>
<path fill="#111111" d="
  M 1733.09 246.21
  Q 1733.46 245.57 1733.87 245.35
  Q 1735.64 244.42 1737.23 243.18
  Q 1739.18 241.66 1740.48 240.95
  Q 1760.92 229.80 1784.96 228.67
  Q 1800.21 227.96 1816.14 230.72
  Q 1834.66 233.93 1849.80 244.61
  C 1872.92 260.93 1879.32 292.40 1873.11 319.27
  C 1869.33 335.64 1859.66 349.85 1845.76 359.09
  Q 1835.18 366.11 1821.56 369.37
  Q 1794.16 375.93 1766.03 369.92
  Q 1743.23 365.05 1728.16 350.37
  C 1708.56 331.29 1705.09 298.92 1713.21 274.66
  Q 1717.30 262.44 1726.50 252.19
  Q 1729.42 248.92 1732.43 246.92
  Q 1732.84 246.64 1733.09 246.21
  Z
  M 1759.55 264.47
  Q 1755.35 267.19 1753.39 271.19
  Q 1746.91 279.85 1744.94 291.01
  C 1742.13 306.99 1745.41 322.89 1756.58 334.84
  Q 1765.81 344.71 1780.02 347.19
  Q 1791.67 349.21 1801.98 347.51
  Q 1828.04 343.19 1837.07 320.22
  C 1840.96 310.31 1841.72 299.30 1839.41 289.00
  C 1835.04 269.46 1821.09 257.39 1801.87 253.91
  Q 1782.40 250.39 1764.45 260.94
  Q 1761.67 262.57 1759.55 264.47
  Z"
/>
<path fill="#111111" d="
  M 688.65 317.57
  L 688.65 367.80
  A 0.45 0.44 0.0 0 1 688.20 368.24
  L 655.75 368.25
  A 0.51 0.50 0.0 0 1 655.24 367.75
  L 655.25 233.35
  Q 655.25 232.78 655.81 232.78
  Q 702.67 232.66 745.61 232.82
  C 763.25 232.88 781.09 239.70 787.11 257.75
  Q 790.84 268.97 789.74 279.92
  Q 786.84 308.63 759.48 315.31
  Q 751.54 317.25 737.47 317.25
  Q 713.83 317.24 688.95 317.27
  A 0.30 0.30 0.0 0 0 688.65 317.57
  Z
  M 688.65 256.59
  L 688.65 293.11
  A 0.37 0.37 0.0 0 0 689.02 293.48
  L 738.32 293.48
  A 17.87 17.09 0.0 0 0 756.19 276.39
  L 756.19 273.31
  A 17.87 17.09 -0.0 0 0 738.32 256.22
  L 689.02 256.22
  A 0.37 0.37 0.0 0 0 688.65 256.59
  Z"
/>
<path fill="#111111" d="
  M 899.39 312.32
  L 939.94 367.80
  A 0.28 0.28 0.0 0 1 939.71 368.24
  L 900.76 368.26
  A 1.18 1.15 72.8 0 1 899.79 367.73
  L 864.23 314.00
  Q 864.06 313.75 863.76 313.75
  L 825.77 313.75
  A 0.48 0.48 0.0 0 0 825.29 314.23
  L 825.30 367.73
  A 0.52 0.51 0.0 0 1 824.78 368.24
  L 792.00 368.25
  A 0.50 0.50 0.0 0 1 791.50 367.75
  L 791.50 233.03
  A 0.29 0.28 0.0 0 1 791.79 232.75
  Q 840.27 232.74 888.63 232.76
  Q 898.58 232.77 907.15 235.22
  C 933.07 242.62 940.89 273.50 928.67 294.93
  C 922.77 305.28 911.05 309.83 899.71 311.56
  Q 898.93 311.68 899.39 312.32
  Z
  M 825.31 257.03
  L 825.25 289.15
  A 0.59 0.59 0.0 0 0 825.84 289.75
  L 883.45 289.85
  A 16.44 15.46 0.1 0 0 899.92 274.42
  L 899.92 272.04
  A 16.44 15.46 0.1 0 0 883.51 256.55
  L 825.90 256.45
  A 0.59 0.59 0.0 0 0 825.31 257.03
  Z"
/>
<path fill="#111111" d="
  M 1280.61 317.57
  L 1280.61 367.82
  A 0.42 0.42 0.0 0 1 1280.19 368.24
  L 1247.99 368.25
  A 0.76 0.76 0.0 0 1 1247.23 367.49
  L 1247.24 233.38
  Q 1247.24 232.78 1247.84 232.78
  Q 1297.77 232.67 1337.67 232.82
  Q 1345.05 232.85 1353.57 234.98
  C 1365.72 238.01 1375.20 246.09 1379.18 257.96
  C 1382.73 268.54 1383.03 282.33 1378.91 292.54
  C 1371.20 311.65 1353.72 316.97 1334.51 317.14
  Q 1309.54 317.36 1280.96 317.23
  A 0.34 0.34 0.0 0 0 1280.61 317.57
  Z
  M 1280.53 256.89
  L 1280.59 292.93
  A 0.62 0.62 0.0 0 0 1281.21 293.55
  L 1330.30 293.46
  A 17.91 16.99 -0.1 0 0 1348.18 276.44
  L 1348.18 273.14
  A 17.91 16.99 -0.1 0 0 1330.24 256.18
  L 1281.15 256.27
  A 0.62 0.62 0.0 0 0 1280.53 256.89
  Z"
/>
<path fill="#111111" d="
  M 1417.79 343.99
  L 1512.96 344.01
  A 0.50 0.50 0.0 0 1 1513.46 344.51
  L 1513.47 367.75
  A 0.50 0.50 0.0 0 1 1512.97 368.25
  L 1383.78 368.25
  A 0.50 0.50 0.0 0 1 1383.28 367.75
  L 1383.29 233.25
  A 0.50 0.50 0.0 0 1 1383.79 232.75
  L 1509.11 232.75
  A 0.50 0.50 0.0 0 1 1509.61 233.25
  L 1509.59 256.75
  A 0.50 0.50 0.0 0 1 1509.09 257.25
  L 1417.78 257.25
  A 0.50 0.50 0.0 0 0 1417.28 257.75
  L 1417.27 287.25
  A 0.50 0.50 0.0 0 0 1417.77 287.75
  L 1506.02 287.75
  A 0.50 0.50 0.0 0 1 1506.52 288.25
  L 1506.51 311.49
  A 0.50 0.50 0.0 0 1 1506.01 311.99
  L 1417.77 312.01
  A 0.50 0.50 0.0 0 0 1417.27 312.51
  L 1417.29 343.49
  A 0.50 0.50 0.0 0 0 1417.79 343.99
  Z"
/>
<path fill="#111111" d="
  M 1627.21 312.22
  Q 1627.37 312.32 1627.49 312.48
  Q 1647.03 338.97 1666.39 365.65
  Q 1667.58 367.30 1667.58 365.26
  L 1667.59 232.95
  A 0.20 0.20 0.0 0 1 1667.79 232.75
  L 1701.22 232.76
  Q 1701.54 232.76 1701.54 233.08
  L 1701.54 367.76
  A 0.49 0.49 0.0 0 1 1701.05 368.25
  L 1628.96 368.26
  Q 1628.22 368.26 1627.81 367.64
  L 1592.38 314.10
  Q 1592.15 313.75 1591.74 313.75
  L 1553.83 313.75
  A 0.42 0.42 0.0 0 0 1553.41 314.17
  L 1553.42 367.66
  A 0.58 0.58 0.0 0 1 1552.84 368.24
  L 1520.04 368.25
  A 0.47 0.46 -0.0 0 1 1519.57 367.79
  L 1519.57 233.24
  A 0.49 0.48 0.0 0 1 1520.06 232.76
  Q 1561.58 232.72 1607.96 232.76
  Q 1621.27 232.77 1624.01 233.02
  Q 1631.96 233.75 1639.40 236.73
  C 1661.21 245.45 1667.19 272.16 1658.45 291.66
  C 1652.63 304.65 1640.41 309.57 1627.32 311.66
  Q 1626.48 311.79 1627.21 312.22
  Z
  M 1553.37 257.04
  L 1553.37 289.26
  A 0.53 0.53 0.0 0 0 1553.90 289.79
  L 1611.62 289.79
  A 16.37 15.40 0.0 0 0 1627.99 274.39
  L 1627.99 271.91
  A 16.37 15.40 -0.0 0 0 1611.62 256.51
  L 1553.90 256.51
  A 0.53 0.53 0.0 0 0 1553.37 257.04
  Z"
/>
<circle fill="#2157a5" cx="168.30" cy="277.79" r="26.72"/>
<circle fill="#1a6ab4" cx="283.82" cy="277.79" r="26.72"/>
<path fill="#ffffff" d="
  M 987.56 261.56
  Q 1000.97 252.86 1017.00 253.11
  C 1035.20 253.40 1051.81 261.90 1059.79 278.61
  C 1070.18 300.37 1063.85 331.88 1040.41 342.93
  C 1029.52 348.06 1018.60 349.07 1006.38 347.62
  C 984.92 345.05 970.11 328.02 968.19 307.14
  Q 966.76 291.58 972.77 278.78
  Q 977.91 267.81 987.56 261.56
  Z"
/>
<path fill="#ffffff" d="
  M 1753.39 271.19
  L 1759.55 264.47
  Q 1761.67 262.57 1764.45 260.94
  Q 1782.40 250.39 1801.87 253.91
  C 1821.09 257.39 1835.04 269.46 1839.41 289.00
  C 1841.72 299.30 1840.96 310.31 1837.07 320.22
  Q 1828.04 343.19 1801.98 347.51
  Q 1791.67 349.21 1780.02 347.19
  Q 1765.81 344.71 1756.58 334.84
  C 1745.41 322.89 1742.13 306.99 1744.94 291.01
  Q 1746.91 279.85 1753.39 271.19
  Z"
/>
<path fill="#ffffff" d="
  M 688.65 256.59
  A 0.37 0.37 0.0 0 1 689.02 256.22
  L 738.32 256.22
  A 17.87 17.09 0.0 0 1 756.19 273.31
  L 756.19 276.39
  A 17.87 17.09 0.0 0 1 738.32 293.48
  L 689.02 293.48
  A 0.37 0.37 0.0 0 1 688.65 293.11
  L 688.65 256.59
  Z"
/>
<path fill="#ffffff" d="
  M 1280.53 256.89
  A 0.62 0.62 0.0 0 1 1281.15 256.27
  L 1330.24 256.18
  A 17.91 16.99 -0.1 0 1 1348.18 273.14
  L 1348.18 276.44
  A 17.91 16.99 -0.1 0 1 1330.30 293.46
  L 1281.21 293.55
  A 0.62 0.62 0.0 0 1 1280.59 292.93
  L 1280.53 256.89
  Z"
/>
<path fill="#ffffff" d="
  M 825.31 257.03
  A 0.59 0.59 0.0 0 1 825.90 256.45
  L 883.51 256.55
  A 16.44 15.46 0.1 0 1 899.92 272.04
  L 899.92 274.42
  A 16.44 15.46 0.1 0 1 883.45 289.85
  L 825.84 289.75
  A 0.59 0.59 0.0 0 1 825.25 289.15
  L 825.31 257.03
  Z"
/>
<path fill="#ffffff" d="
  M 1553.37 257.04
  A 0.53 0.53 0.0 0 1 1553.90 256.51
  L 1611.62 256.51
  A 16.37 15.40 -0.0 0 1 1627.99 271.91
  L 1627.99 274.39
  A 16.37 15.40 -0.0 0 1 1611.62 289.79
  L 1553.90 289.79
  A 0.53 0.53 0.0 0 1 1553.37 289.26
  L 1553.37 257.04
  Z"
/>
<path fill="#2157a5" d="
  M 1139.98 264.73
  L 1139.75 270.74
  Q 1138.08 267.27 1139.98 264.73
  Z"
/>
<path fill="#2157a5" d="
  M 1759.55 264.47
  L 1753.39 271.19
  Q 1755.35 267.19 1759.55 264.47
  Z"
/>
<circle fill="#127fc7" cx="341.58" cy="309.76" r="26.75"/>
<circle fill="#2a4192" cx="110.53" cy="309.90" r="26.70"/>
<circle fill="#1a6ab4" cx="225.46" cy="311.15" r="26.70"/>
<circle fill="#2a4192" cx="52.77" cy="342.00" r="26.76"/>
<circle fill="#0a95da" cx="399.34" cy="342.01" r="26.76"/>
<circle fill="#2157a5" cx="167.71" cy="343.66" r="26.70"/>
<circle fill="#127fc7" cx="283.22" cy="343.66" r="26.70"/>
<path fill="#2157a5" d="
  M 1201.28 319.96
  Q 1205.70 321.79 1206.47 326.22
  Q 1204.74 322.35 1201.28 319.96
  Z"
/>
<circle fill="#0a95da" cx="340.99" cy="375.53" r="26.73"/>
<circle fill="#2157a5" cx="109.94" cy="375.76" r="26.76"/>
<circle fill="#2157a5" cx="52.18" cy="407.79" r="26.73"/>
<circle fill="#0a95da" cx="398.75" cy="407.79" r="26.72"/>
<path fill="#111111" d="
  M 1142.89 473.13
  L 1137.99 480.79
  A 0.41 0.41 0.0 0 1 1137.68 480.98
  L 1135.27 481.17
  A 0.41 0.41 0.0 0 1 1134.87 480.58
  L 1138.71 472.74
  A 0.41 0.41 0.0 0 1 1139.08 472.51
  L 1142.54 472.50
  A 0.41 0.41 0.0 0 1 1142.89 473.13
  Z"
/>
<path fill="#111111" d="
  M 1152.17 473.08
  L 1147.09 480.75
  A 0.36 0.36 0.0 0 1 1146.84 480.91
  L 1144.34 481.23
  A 0.36 0.36 0.0 0 1 1143.97 480.71
  L 1147.92 472.76
  A 0.36 0.36 0.0 0 1 1148.24 472.56
  L 1151.87 472.52
  A 0.36 0.36 0.0 0 1 1152.17 473.08
  Z"
/>
<path fill="#111111" d="
  M 674.41 473.32
  L 669.30 481.09
  A 0.36 0.36 0.0 0 1 669.02 481.25
  L 666.58 481.42
  A 0.36 0.36 0.0 0 1 666.23 480.90
  L 670.17 473.00
  A 0.36 0.36 0.0 0 1 670.49 472.80
  L 674.11 472.77
  A 0.36 0.36 0.0 0 1 674.41 473.32
  Z"
/>
<path fill="#111111" d="
  M 799.41 473.29
  L 794.30 481.08
  A 0.36 0.36 0.0 0 1 794.03 481.25
  L 791.52 481.46
  A 0.36 0.36 0.0 0 1 791.17 480.94
  L 795.13 473.02
  A 0.36 0.36 0.0 0 1 795.45 472.82
  L 799.10 472.73
  A 0.36 0.36 0.0 0 1 799.41 473.29
  Z"
/>
<path fill="#111111" d="
  M 1493.05 473.34
  L 1487.84 481.11
  A 0.41 0.41 0.0 0 1 1487.53 481.29
  L 1485.30 481.42
  A 0.41 0.41 0.0 0 1 1484.91 480.83
  L 1488.68 473.11
  A 0.41 0.41 0.0 0 1 1489.03 472.88
  L 1492.69 472.70
  A 0.41 0.41 0.0 0 1 1493.05 473.34
  Z"
/>
<path fill="#111111" d="
  M 1155.74 515.41
  A 9.29 9.29 0.0 0 1 1146.45 524.70
  L 1135.89 524.70
  A 9.29 9.29 0.0 0 1 1126.60 515.41
  L 1126.60 494.07
  A 9.29 9.29 0.0 0 1 1135.89 484.78
  L 1146.45 484.78
  A 9.29 9.29 0.0 0 1 1155.74 494.07
  L 1155.74 515.41
  Z
  M 1151.58 494.17
  A 5.81 5.81 0.0 0 0 1145.77 488.36
  L 1136.59 488.36
  A 5.81 5.81 0.0 0 0 1130.78 494.17
  L 1130.78 515.31
  A 5.81 5.81 0.0 0 0 1136.59 521.12
  L 1145.77 521.12
  A 5.81 5.81 0.0 0 0 1151.58 515.31
  L 1151.58 494.17
  Z"
/>
<path fill="#111111" d="
  M 1369.66 515.44
  A 9.27 9.27 0.0 0 1 1360.39 524.71
  L 1349.77 524.71
  A 9.27 9.27 0.0 0 1 1340.50 515.44
  L 1340.50 494.06
  A 9.27 9.27 0.0 0 1 1349.77 484.79
  L 1360.39 484.79
  A 9.27 9.27 0.0 0 1 1369.66 494.06
  L 1369.66 515.44
  Z
  M 1365.49 494.15
  A 5.76 5.76 0.0 0 0 1359.73 488.39
  L 1350.45 488.39
  A 5.76 5.76 0.0 0 0 1344.69 494.15
  L 1344.69 515.35
  A 5.76 5.76 0.0 0 0 1350.45 521.11
  L 1359.73 521.11
  A 5.76 5.76 0.0 0 0 1365.49 515.35
  L 1365.49 494.15
  Z"
/>
<path fill="#111111" d="
  M 1584.9815 515.3654
  A 9.38 9.38 0.0 0 1 1575.5851 524.7291
  L 1565.1652 524.7109
  A 9.38 9.38 0.0 0 1 1555.8015 515.3145
  L 1555.8385 494.1346
  A 9.38 9.38 0.0 0 1 1565.2349 484.7709
  L 1575.6548 484.7891
  A 9.38 9.38 0.0 0 1 1585.0185 494.1855
  L 1584.9815 515.3654
  Z
  M 1580.7427 494.0638
  A 5.70 5.70 0.0 0 0 1575.0229 488.3838
  L 1565.6629 488.4164
  A 5.70 5.70 0.0 0 0 1559.9829 494.1363
  L 1560.0573 515.4562
  A 5.70 5.70 0.0 0 0 1565.7771 521.1362
  L 1575.1371 521.1036
  A 5.70 5.70 0.0 0 0 1580.8171 515.3837
  L 1580.7427 494.0638
  Z"
/>
<path fill="#111111" d="
  M 659.41 489.59
  L 659.42 501.71
  Q 659.42 502.49 660.20 502.49
  L 674.42 502.51
  Q 675.33 502.51 675.32 503.42
  L 675.29 505.05
  A 1.08 1.08 0.0 0 1 674.21 506.12
  L 660.05 506.19
  Q 659.42 506.19 659.42 506.83
  L 659.39 519.99
  A 0.60 0.59 0.5 0 0 659.99 520.59
  L 680.02 520.74
  Q 680.55 520.74 680.54 521.27
  L 680.51 523.27
  Q 680.50 524.05 679.73 524.05
  L 655.78 524.19
  Q 655.23 524.20 655.23 523.65
  L 655.25 486.02
  Q 655.25 485.27 656.00 485.26
  Q 668.09 485.25 679.18 485.24
  Q 681.13 485.24 680.51 487.04
  Q 680.47 487.17 680.48 487.31
  A 1.47 1.45 -1.9 0 1 679.02 488.85
  Q 669.43 488.87 660.11 488.89
  Q 659.41 488.89 659.41 489.59
  Z"
/>
<path fill="#111111" d="
  M 700.75 509.59
  L 700.77 523.47
  Q 700.77 523.96 700.28 523.98
  L 696.93 524.12
  Q 696.48 524.14 696.48 523.69
  L 696.49 485.96
  Q 696.49 485.31 697.14 485.30
  Q 706.51 485.10 713.67 485.37
  C 722.78 485.73 724.04 492.48 723.48 500.01
  Q 722.96 506.88 716.62 508.42
  Q 715.99 508.57 716.33 509.13
  L 724.65 522.65
  Q 725.42 523.90 723.96 523.98
  L 721.75 524.11
  Q 720.38 524.19 719.71 523.00
  L 712.22 509.66
  Q 711.78 508.87 710.88 508.87
  L 701.41 508.92
  Q 700.74 508.92 700.75 509.59
  Z
  M 700.73 489.46
  L 700.71 504.62
  A 0.61 0.61 0.0 0 0 701.32 505.23
  L 713.38 505.26
  A 5.87 5.60 0.1 0 0 719.26 499.67
  L 719.26 494.49
  A 5.87 5.60 0.1 0 0 713.40 488.88
  L 701.34 488.85
  A 0.61 0.61 0.0 0 0 700.73 489.46
  Z"
/>
<path fill="#111111" d="
  M 753.19 489.41
  L 753.18 523.52
  A 0.50 0.50 0.0 0 1 752.69 524.02
  L 749.32 524.11
  A 0.50 0.50 0.0 0 1 748.81 523.61
  L 748.79 489.40
  A 0.50 0.50 0.0 0 0 748.29 488.90
  L 737.12 488.85
  A 0.50 0.50 0.0 0 1 736.63 488.32
  L 736.80 485.73
  A 0.50 0.50 0.0 0 1 737.30 485.26
  L 764.86 485.26
  A 0.50 0.50 0.0 0 1 765.36 485.81
  L 765.09 488.31
  A 0.50 0.50 0.0 0 1 764.60 488.76
  L 753.68 488.91
  A 0.50 0.50 0.0 0 0 753.19 489.41
  Z"
/>
<path fill="#111111" d="
  M 785.08 502.47
  L 799.63 502.55
  A 0.69 0.69 0.0 0 1 800.32 503.26
  L 800.24 505.33
  A 0.69 0.69 0.0 0 1 799.56 506.00
  L 785.09 506.18
  A 0.69 0.69 0.0 0 0 784.41 506.87
  L 784.35 519.95
  A 0.69 0.69 0.0 0 0 785.04 520.65
  L 804.87 520.80
  A 0.69 0.69 0.0 0 1 805.56 521.50
  L 805.55 523.29
  A 0.69 0.69 0.0 0 1 804.87 523.98
  L 780.95 524.17
  A 0.69 0.69 0.0 0 1 780.25 523.48
  L 780.23 485.94
  A 0.69 0.69 0.0 0 1 780.92 485.25
  L 804.89 485.26
  A 0.69 0.69 0.0 0 1 805.57 486.04
  L 805.29 488.22
  A 0.69 0.69 0.0 0 1 804.61 488.82
  L 785.07 488.91
  A 0.69 0.69 0.0 0 0 784.38 489.60
  L 784.39 501.78
  A 0.69 0.69 0.0 0 0 785.08 502.47
  Z"
/>
<path fill="#111111" d="
  M 825.62 506.92
  L 825.69 523.23
  A 0.80 0.80 0.0 0 1 824.92 524.03
  L 822.32 524.15
  A 0.80 0.80 0.0 0 1 821.48 523.35
  L 821.47 486.06
  A 0.80 0.80 0.0 0 1 822.26 485.26
  L 824.90 485.21
  A 0.80 0.80 0.0 0 1 825.72 486.01
  L 825.63 501.73
  A 0.80 0.80 0.0 0 0 826.44 502.53
  L 834.38 502.44
  A 0.80 0.80 0.0 0 0 835.07 502.02
  L 844.04 485.70
  A 0.80 0.80 0.0 0 1 844.77 485.29
  L 847.95 485.39
  A 0.80 0.80 0.0 0 1 848.61 486.60
  L 838.44 503.82
  A 0.80 0.80 0.0 0 0 838.44 504.64
  L 849.15 522.76
  A 0.80 0.80 0.0 0 1 848.50 523.97
  L 845.27 524.11
  A 0.80 0.80 0.0 0 1 844.53 523.70
  L 835.07 506.52
  A 0.80 0.80 0.0 0 0 834.37 506.10
  L 826.42 506.12
  A 0.80 0.80 0.0 0 0 825.62 506.92
  Z"
/>
<path fill="#111111" d="
  M 871.56 488.89
  L 860.51 488.85
  Q 859.80 488.85 859.92 488.15
  Q 860.10 487.02 859.90 485.98
  Q 859.75 485.25 860.50 485.25
  L 887.74 485.25
  Q 889.00 485.25 888.73 486.48
  Q 888.64 486.90 888.58 487.32
  Q 888.35 488.86 886.79 488.86
  L 877.02 488.87
  Q 876.42 488.88 876.42 489.48
  L 876.41 523.28
  Q 876.41 523.98 875.72 524.01
  L 872.84 524.15
  Q 872.25 524.18 872.25 523.59
  L 872.23 489.56
  Q 872.23 488.89 871.56 488.89
  Z"
/>
<path fill="#111111" d="
  M 908.11 520.62
  L 928.26 520.73
  A 0.54 0.54 0.0 0 1 928.80 521.29
  L 928.72 523.52
  A 0.54 0.54 0.0 0 1 928.18 524.04
  L 904.03 524.19
  A 0.54 0.54 0.0 0 1 903.49 523.65
  L 903.48 485.79
  A 0.54 0.54 0.0 0 1 904.02 485.25
  L 928.38 485.26
  A 0.54 0.54 0.0 0 1 928.91 485.91
  L 928.40 488.42
  A 0.54 0.54 0.0 0 1 927.87 488.85
  L 908.15 488.88
  A 0.54 0.54 0.0 0 0 907.61 489.42
  L 907.62 501.95
  A 0.54 0.54 0.0 0 0 908.16 502.49
  L 922.98 502.52
  A 0.54 0.54 0.0 0 1 923.52 503.07
  L 923.48 505.56
  A 0.54 0.54 0.0 0 1 922.94 506.09
  L 908.14 506.20
  A 0.54 0.54 0.0 0 0 907.61 506.73
  L 907.57 520.08
  A 0.54 0.54 0.0 0 0 908.11 520.62
  Z"
/>
<path fill="#111111" d="
  M 964.56 509.13
  L 973.01 522.74
  Q 973.48 523.49 972.64 523.75
  Q 971.26 524.17 969.69 524.16
  Q 968.65 524.16 968.14 523.25
  L 960.30 509.37
  A 0.97 0.96 -14.9 0 0 959.44 508.88
  L 949.55 508.90
  A 0.56 0.55 -0.0 0 0 948.99 509.45
  L 949.02 523.76
  Q 949.02 524.05 948.74 524.05
  L 945.16 524.10
  Q 944.73 524.10 944.73 523.66
  L 944.71 485.99
  Q 944.71 485.30 945.40 485.29
  Q 953.99 485.14 961.47 485.35
  C 970.84 485.61 972.30 491.84 971.72 500.04
  Q 971.24 506.93 964.85 508.43
  Q 964.22 508.58 964.56 509.13
  Z
  M 948.96 489.65
  L 948.94 504.47
  A 0.82 0.82 0.0 0 0 949.76 505.30
  L 961.61 505.32
  A 6.10 6.01 -89.9 0 0 967.63 499.23
  L 967.63 494.97
  A 6.10 6.01 -89.9 0 0 961.63 488.86
  L 949.78 488.84
  A 0.82 0.82 0.0 0 0 948.96 489.65
  Z"
/>
<path fill="#111111" d="
  M 994.65 520.57
  L 1014.85 520.66
  A 0.49 0.49 0.0 0 1 1015.33 521.16
  L 1015.26 523.63
  A 0.49 0.49 0.0 0 1 1014.77 524.10
  L 990.47 524.17
  A 0.49 0.49 0.0 0 1 989.98 523.68
  L 989.96 485.74
  A 0.49 0.49 0.0 0 1 990.45 485.25
  L 1014.87 485.25
  A 0.49 0.49 0.0 0 1 1015.36 485.79
  L 1015.09 488.37
  A 0.49 0.49 0.0 0 1 1014.61 488.81
  L 994.71 488.91
  A 0.49 0.49 0.0 0 0 994.22 489.40
  L 994.19 501.99
  A 0.49 0.49 0.0 0 0 994.68 502.48
  L 1009.55 502.50
  A 0.49 0.49 0.0 0 1 1010.03 502.99
  L 1010.01 505.66
  A 0.49 0.49 0.0 0 1 1009.52 506.14
  L 994.68 506.19
  A 0.49 0.49 0.0 0 0 994.19 506.68
  L 994.16 520.08
  A 0.49 0.49 0.0 0 0 994.65 520.57
  Z"
/>
<path fill="#111111" d="
  M 1064.84 493.97
  Q 1064.50 491.15 1063.42 493.77
  Q 1058.61 505.41 1053.75 516.98
  Q 1052.94 518.91 1051.58 518.96
  Q 1050.31 519.01 1049.28 518.72
  Q 1048.59 518.52 1048.35 517.94
  Q 1042.72 504.64 1037.78 492.63
  A 0.42 0.42 0.0 0 0 1036.97 492.74
  L 1033.32 523.52
  A 0.60 0.60 0.0 0 1 1032.72 524.05
  L 1029.52 524.08
  A 0.65 0.64 3.9 0 1 1028.88 523.35
  Q 1031.43 504.58 1033.81 486.37
  Q 1033.98 485.08 1035.28 485.23
  C 1036.33 485.35 1037.47 485.18 1038.52 485.28
  Q 1039.06 485.34 1039.27 485.84
  L 1050.54 512.88
  A 0.32 0.32 0.0 0 0 1051.13 512.88
  Q 1056.92 498.94 1062.10 486.49
  C 1062.85 484.70 1065.48 485.27 1067.02 485.22
  Q 1067.62 485.20 1067.70 485.80
  L 1072.83 523.66
  Q 1072.87 523.94 1072.58 523.95
  L 1068.56 524.07
  Q 1068.41 524.07 1068.39 523.92
  L 1064.84 493.97
  Z"
/>
<path fill="#111111" d="
  M 1096.41 488.89
  L 1085.16 488.85
  A 0.52 0.52 0.0 0 1 1084.64 488.30
  L 1084.78 485.74
  A 0.52 0.52 0.0 0 1 1085.30 485.25
  L 1112.96 485.26
  A 0.52 0.52 0.0 0 1 1113.47 485.83
  L 1113.23 488.32
  A 0.52 0.52 0.0 0 1 1112.72 488.79
  L 1101.70 488.90
  A 0.52 0.52 0.0 0 0 1101.19 489.42
  L 1101.18 523.54
  A 0.52 0.52 0.0 0 1 1100.66 524.06
  L 1097.51 524.08
  A 0.52 0.52 0.0 0 1 1096.99 523.56
  L 1096.93 489.41
  A 0.52 0.52 0.0 0 0 1096.41 488.89
  Z"
/>
<path fill="#111111" d="
  M 1202.36 492.77
  L 1198.79 523.15
  Q 1198.69 523.98 1197.86 524.00
  L 1195.28 524.06
  Q 1194.21 524.09 1194.35 523.02
  L 1199.36 485.91
  Q 1199.45 485.27 1200.10 485.27
  L 1203.94 485.26
  A 0.75 0.74 -11.3 0 1 1204.65 485.73
  L 1215.75 512.47
  A 0.50 0.50 0.0 0 0 1216.67 512.48
  Q 1221.93 500.06 1227.13 487.39
  Q 1227.52 486.45 1228.15 485.68
  Q 1228.51 485.24 1229.08 485.25
  L 1232.29 485.26
  Q 1233.08 485.27 1233.19 486.05
  L 1238.17 523.24
  A 0.70 0.69 85.5 0 1 1237.50 524.03
  L 1234.49 524.12
  Q 1233.83 524.13 1233.76 523.48
  L 1230.10 492.71
  A 0.40 0.40 0.0 0 0 1229.33 492.61
  L 1218.66 518.20
  A 0.88 0.87 -84.1 0 1 1218.02 518.73
  Q 1216.28 519.06 1214.60 518.81
  Q 1214.08 518.74 1213.88 518.25
  L 1203.18 492.65
  Q 1202.55 491.14 1202.36 492.77
  Z"
/>
<path fill="#111111" d="
  M 1260.33 520.62
  L 1280.54 520.68
  A 0.50 0.50 0.0 0 1 1281.04 521.18
  L 1281.01 523.60
  A 0.50 0.50 0.0 0 1 1280.52 524.09
  L 1256.22 524.17
  A 0.50 0.50 0.0 0 1 1255.72 523.67
  L 1255.74 485.75
  A 0.50 0.50 0.0 0 1 1256.24 485.25
  L 1280.68 485.26
  A 0.50 0.50 0.0 0 1 1281.17 485.86
  L 1280.68 488.41
  A 0.50 0.50 0.0 0 1 1280.19 488.81
  L 1260.34 488.91
  A 0.50 0.50 0.0 0 0 1259.84 489.41
  L 1259.83 502.00
  A 0.50 0.50 0.0 0 0 1260.33 502.50
  L 1275.22 502.50
  A 0.50 0.50 0.0 0 1 1275.72 503.00
  L 1275.72 505.61
  A 0.50 0.50 0.0 0 1 1275.22 506.11
  L 1260.35 506.20
  A 0.50 0.50 0.0 0 0 1259.85 506.70
  L 1259.83 520.12
  A 0.50 0.50 0.0 0 0 1260.33 520.62
  Z"
/>
<path fill="#111111" d="
  M 1318.58 519.81
  L 1318.55 503.70
  Q 1318.55 503.21 1319.05 503.20
  L 1322.53 503.13
  Q 1322.94 503.12 1322.94 503.53
  L 1322.87 523.25
  Q 1322.87 524.07 1322.05 524.09
  Q 1313.46 524.27 1306.27 524.10
  Q 1296.06 523.85 1295.87 514.02
  Q 1295.70 505.50 1295.89 495.65
  Q 1296.08 485.90 1305.28 485.44
  Q 1312.42 485.08 1321.10 485.29
  Q 1322.17 485.31 1321.75 486.30
  Q 1321.49 486.93 1321.57 487.59
  A 1.15 1.14 -3.1 0 1 1320.43 488.86
  Q 1312.54 488.86 1305.90 488.90
  C 1302.74 488.93 1300.20 491.19 1300.20 494.45
  Q 1300.19 504.43 1300.16 514.80
  C 1300.16 518.63 1302.94 520.66 1306.71 520.65
  Q 1312.25 520.63 1317.79 520.60
  Q 1318.58 520.60 1318.58 519.81
  Z"
/>
<path fill="#111111" d="
  M 1393.07 520.62
  L 1413.14 520.81
  A 0.42 0.42 0.0 0 1 1413.56 521.24
  L 1413.49 523.61
  A 0.42 0.42 0.0 0 1 1413.07 524.02
  L 1388.90 524.16
  A 0.42 0.42 0.0 0 1 1388.48 523.74
  L 1388.49 485.71
  A 0.42 0.42 0.0 0 1 1388.91 485.29
  L 1392.26 485.25
  A 0.42 0.42 0.0 0 1 1392.68 485.67
  L 1392.65 520.20
  A 0.42 0.42 0.0 0 0 1393.07 520.62
  Z"
/>
<path fill="#111111" d="
  M 1428.26 485.70
  A 0.42 0.42 0.0 0 1 1428.68 485.28
  L 1445.81 485.22
  A 10.07 9.92 -0.2 0 1 1455.92 495.10
  L 1455.98 514.18
  A 10.07 9.92 -0.2 0 1 1445.95 524.14
  L 1428.82 524.20
  A 0.42 0.42 0.0 0 1 1428.40 523.78
  L 1428.26 485.70
  Z
  M 1432.36 489.66
  L 1432.42 519.86
  A 0.83 0.83 0.0 0 0 1433.25 520.69
  L 1445.35 520.66
  A 6.49 6.40 -0.1 0 0 1451.83 514.25
  L 1451.79 495.19
  A 6.49 6.40 -0.1 0 0 1445.29 488.80
  L 1433.19 488.83
  A 0.83 0.83 0.0 0 0 1432.36 489.66
  Z"
/>
<path fill="#111111" d="
  M 1493.47 514.07
  L 1477.75 514.11
  A 0.80 0.80 0.0 0 0 1476.99 514.66
  L 1474.12 523.46
  A 0.80 0.80 0.0 0 1 1473.37 524.01
  L 1470.23 524.09
  A 0.80 0.80 0.0 0 1 1469.46 523.02
  L 1483.03 485.83
  A 0.80 0.80 0.0 0 1 1483.77 485.31
  L 1487.42 485.27
  A 0.80 0.80 0.0 0 1 1488.17 485.80
  L 1501.77 522.91
  A 0.80 0.80 0.0 0 1 1501.06 523.99
  L 1498.00 524.12
  A 0.80 0.80 0.0 0 1 1497.21 523.58
  L 1494.23 514.62
  A 0.80 0.80 0.0 0 0 1493.47 514.07
  Z
  M 1478.74 510.15
  A 0.34 0.34 0.0 0 0 1479.06 510.60
  L 1492.15 510.62
  A 0.34 0.34 0.0 0 0 1492.48 510.18
  L 1485.96 490.77
  A 0.34 0.34 0.0 0 0 1485.32 490.77
  L 1478.74 510.15
  Z"
/>
<path fill="#111111" d="
  M 1529.77 520.55
  C 1533.19 520.54 1536.01 518.32 1535.80 514.69
  C 1535.59 511.22 1536.31 508.50 1531.85 507.41
  Q 1527.00 506.24 1522.33 505.29
  Q 1513.92 503.57 1514.30 495.03
  Q 1514.71 485.77 1523.83 485.39
  Q 1530.12 485.12 1538.39 485.28
  Q 1539.31 485.29 1539.30 486.21
  L 1539.28 487.41
  Q 1539.26 488.87 1537.80 488.87
  Q 1530.23 488.84 1524.52 488.93
  Q 1519.63 489.02 1518.60 493.74
  C 1517.96 496.66 1518.88 500.55 1522.26 501.27
  Q 1527.58 502.40 1532.84 503.54
  C 1540.27 505.16 1541.64 513.59 1538.89 519.29
  Q 1536.79 523.66 1531.55 523.98
  Q 1524.84 524.40 1514.27 524.08
  Q 1513.69 524.07 1513.70 523.49
  L 1513.72 521.28
  Q 1513.73 520.66 1514.35 520.65
  Q 1522.35 520.57 1529.77 520.55
  Z"
/>
<path fill="#111111" d="
  M 1607.98 506.87
  L 1608.03 523.32
  A 0.76 0.76 0.0 0 1 1607.29 524.08
  L 1604.52 524.14
  A 0.76 0.76 0.0 0 1 1603.74 523.38
  L 1603.74 486.02
  A 0.76 0.76 0.0 0 1 1604.49 485.26
  L 1607.28 485.22
  A 0.76 0.76 0.0 0 1 1608.05 485.98
  L 1607.97 501.78
  A 0.76 0.76 0.0 0 0 1608.74 502.54
  L 1616.69 502.45
  A 0.76 0.76 0.0 0 0 1617.34 502.05
  L 1626.35 485.65
  A 0.76 0.76 0.0 0 1 1627.03 485.26
  L 1630.35 485.32
  A 0.76 0.76 0.0 0 1 1630.99 486.46
  L 1620.68 503.83
  A 0.76 0.76 0.0 0 0 1620.68 504.61
  L 1631.46 522.79
  A 0.76 0.76 0.0 0 1 1630.84 523.93
  L 1627.53 524.10
  A 0.76 0.76 0.0 0 1 1626.83 523.71
  L 1617.28 506.51
  A 0.76 0.76 0.0 0 0 1616.61 506.12
  L 1608.74 506.11
  A 0.76 0.76 0.0 0 0 1607.98 506.87
  Z"
/>
<rect fill="#ffffff" x="1130.78" y="488.36" width="20.80" height="32.76" rx="5.81"/>
<rect fill="#ffffff" x="1344.69" y="488.39" width="20.80" height="32.72" rx="5.76"/>
<rect fill="#ffffff" x="-10.38" y="-16.36" transform="translate(1570.40,504.76) rotate(-0.2)" width="20.76" height="32.72" rx="5.70"/>
<path fill="#ffffff" d="
  M 700.73 489.46
  A 0.61 0.61 0.0 0 1 701.34 488.85
  L 713.40 488.88
  A 5.87 5.60 0.1 0 1 719.26 494.49
  L 719.26 499.67
  A 5.87 5.60 0.1 0 1 713.38 505.26
  L 701.32 505.23
  A 0.61 0.61 0.0 0 1 700.71 504.62
  L 700.73 489.46
  Z"
/>
<path fill="#ffffff" d="
  M 948.96 489.65
  A 0.82 0.82 0.0 0 1 949.78 488.84
  L 961.63 488.86
  A 6.10 6.01 -89.9 0 1 967.63 494.97
  L 967.63 499.23
  A 6.10 6.01 -89.9 0 1 961.61 505.32
  L 949.76 505.30
  A 0.82 0.82 0.0 0 1 948.94 504.47
  L 948.96 489.65
  Z"
/>
<path fill="#ffffff" d="
  M 1432.36 489.66
  A 0.83 0.83 0.0 0 1 1433.19 488.83
  L 1445.29 488.80
  A 6.49 6.40 -0.1 0 1 1451.79 495.19
  L 1451.83 514.25
  A 6.49 6.40 -0.1 0 1 1445.35 520.66
  L 1433.25 520.69
  A 0.83 0.83 0.0 0 1 1432.42 519.86
  L 1432.36 489.66
  Z"
/>
<path fill="#ffffff" d="
  M 1478.74 510.15
  L 1485.32 490.77
  A 0.34 0.34 0.0 0 1 1485.96 490.77
  L 1492.48 510.18
  A 0.34 0.34 0.0 0 1 1492.15 510.62
  L 1479.06 510.60
  A 0.34 0.34 0.0 0 1 1478.74 510.15
  Z"
/>
</svg>
