<svg width="76" height="152" viewBox="0 0 152 152" fill="none" xmlns="http://www.w3.org/2000/svg"><rect width="152" height="152" rx="76" fill="#1B9AC6"/><path fill-rule="evenodd" clip-rule="evenodd" d="M101.074 135H96.0263C85.5545 132.929 84.2227 113.323 84.2227 91.8189V88.635C78.1855 89.5453 71.5611 91.1388 65.2938 92.6464C63.2106 93.1476 61.1669 93.6392 59.1973 94.0931C59.1973 95.3818 59.1601 96.6705 59.1229 97.9592C59.0856 99.2479 59.0484 100.537 59.0484 101.825C59.0484 113.651 59.7932 123.961 61.5807 129.722C58.7505 130.935 55.6223 131.087 50.7066 131.087C41.769 131.087 39.0877 114.258 38.1939 94.8511C32.6824 93.335 28.9584 90.3027 28.9584 84.9963C28.9584 83.4801 29.2563 81.6608 30.0011 79.6898C32.0866 80.9027 34.6189 81.6608 37.747 82.1156C37.747 80.9785 37.7098 79.8035 37.6726 78.6285C37.6353 77.4535 37.5981 76.2785 37.5981 75.1414C37.0022 53.4607 36.4064 33.1445 29.5542 33.1445C26.2771 33.1445 25.2344 32.6897 25.2344 31.1735V30.8703C25.3833 24.0477 40.5773 18.5896 50.1108 18.5896H50.8556C57.4098 18.8928 62.7724 24.1993 62.7724 36.3284V37.8445C62.7191 39.3633 62.437 42.842 62.0489 47.6282C61.3522 56.2199 60.3139 69.0247 59.6442 82.2672C62.8896 82.027 66.2052 81.7392 69.526 81.4509C74.5884 81.0115 79.6631 80.5709 84.5206 80.2963C85.0191 71.3816 85.926 60.2495 86.737 50.2953C87.6225 39.4266 88.3936 29.9622 88.3936 26.3219C88.3936 20.7122 99.5656 16.9219 106.567 16.9219C109.397 16.9219 109.844 21.7735 109.844 28.7477C109.844 30.1794 109.811 31.7124 109.776 33.3309C109.736 35.1404 109.695 37.0566 109.695 39.0574C109.695 56.9478 111.482 119.867 122.059 119.867C125.485 119.867 126.527 120.171 126.527 121.99C126.527 128.268 111.197 133.932 101.074 135Z" fill="white"/></svg>